<?xml version="1.0" encoding="utf-8"?>
<!-- Generator: Adobe Illustrator 16.0.0, SVG Export Plug-In . SVG Version: 6.00 Build 0)  -->
<!DOCTYPE svg PUBLIC "-//W3C//DTD SVG 1.1//EN" "http://www.w3.org/Graphics/SVG/1.1/DTD/svg11.dtd">
<svg version="1.1" id="Layer_1" xmlns="http://www.w3.org/2000/svg" xmlns:xlink="http://www.w3.org/1999/xlink" x="0px" y="0px"
	 width="1280px" height="800px" viewBox="0 0 1280 800" enable-background="new 0 0 1280 800" xml:space="preserve">
<rect x="384" y="325" fill="#FFFFFF" width="504" height="151"/>
<circle fill="#078944" cx="463.477" cy="387.375" r="15.039"/>
<circle fill="#078944" cx="463.477" cy="340.359" r="10.352"/>
<circle fill="#013E25" stroke="#231F20" stroke-miterlimit="10" cx="497.266" cy="433.469" r="5.664"/>
<circle fill="#013E25" stroke="#231F20" stroke-miterlimit="10" cx="427.344" cy="459.641" r="5.664"/>
<circle fill="#013E25" stroke="#231F20" stroke-miterlimit="10" cx="399.219" cy="402.414" r="5.664"/>
<circle fill="#013E25" stroke="#231F20" stroke-miterlimit="10" cx="399.219" cy="350.711" r="5.664"/>
<line fill="none" stroke="#078944" stroke-width="4" stroke-miterlimit="10" x1="463.477" y1="339.383" x2="463.477" y2="388.352"/>
<line fill="none" stroke="#078944" stroke-width="4" stroke-miterlimit="10" x1="463.477" y1="388.352" x2="497.266" y2="433.469"/>
<line fill="none" stroke="#078944" stroke-width="4" stroke-miterlimit="10" x1="463.477" y1="388.352" x2="427.344" y2="459.641"/>
<line fill="none" stroke="#078944" stroke-width="4" stroke-miterlimit="10" x1="463.477" y1="388.352" x2="399.219" y2="402.414"/>
<line fill="none" stroke="#078944" stroke-width="4" stroke-miterlimit="10" x1="399.219" y1="402.414" x2="399.219" y2="350.711"/>
<rect x="495.266" y="356.387" fill="none" width="564.401" height="71.353"/>
<g enable-background="new    ">
	<path fill="#363636" d="M524.694,416.324h-11.451v-45.925h-17.257v-11.491h45.925v11.491h-17.217V416.324z"/>
	<path fill="#363636" d="M557.166,405.834c0.427,0.134,0.854,0.221,1.281,0.26c0.427,0.041,0.854,0.061,1.281,0.061
		c1.067,0,2.095-0.146,3.083-0.44c0.987-0.293,1.915-0.714,2.783-1.261c0.867-0.547,1.642-1.215,2.322-2.002
		s1.234-1.662,1.662-2.623l8.008,8.048c-1.015,1.441-2.182,2.736-3.503,3.884c-1.321,1.148-2.75,2.122-4.284,2.923
		c-1.535,0.801-3.15,1.408-4.845,1.821c-1.695,0.414-3.437,0.621-5.225,0.621c-3.017,0-5.853-0.561-8.508-1.682
		c-2.656-1.121-4.979-2.683-6.967-4.685c-1.989-2.002-3.557-4.384-4.705-7.147c-1.148-2.762-1.722-5.798-1.722-9.108
		c0-3.39,0.574-6.486,1.722-9.289c1.147-2.803,2.716-5.191,4.705-7.167c1.988-1.975,4.311-3.51,6.967-4.604
		c2.656-1.094,5.492-1.642,8.508-1.642c1.788,0,3.537,0.214,5.245,0.641c1.708,0.428,3.33,1.041,4.865,1.842
		c1.535,0.801,2.969,1.781,4.304,2.943c1.334,1.16,2.509,2.462,3.523,3.903L557.166,405.834z M562.771,383.292
		c-0.507-0.187-1.008-0.307-1.501-0.36c-0.494-0.053-1.008-0.08-1.542-0.08c-1.495,0-2.903,0.274-4.224,0.82
		c-1.321,0.548-2.469,1.329-3.443,2.343c-0.975,1.015-1.742,2.236-2.302,3.663c-0.561,1.429-0.841,3.037-0.841,4.825
		c0,0.4,0.02,0.854,0.06,1.361c0.04,0.508,0.106,1.021,0.2,1.542c0.093,0.52,0.207,1.021,0.34,1.501
		c0.133,0.48,0.307,0.908,0.521,1.281L562.771,383.292z"/>
	<path fill="#363636" d="M620.308,381.971l-8.008,8.048c-0.4-1.121-0.948-2.128-1.642-3.022c-0.694-0.895-1.475-1.648-2.342-2.263
		c-0.868-0.613-1.809-1.081-2.823-1.401c-1.015-0.32-2.056-0.48-3.123-0.48c-1.495,0-2.903,0.308-4.224,0.921
		c-1.321,0.614-2.469,1.476-3.443,2.583c-0.975,1.107-1.742,2.422-2.302,3.943s-0.841,3.203-0.841,5.045
		c0,1.495,0.28,2.896,0.841,4.204c0.561,1.309,1.328,2.456,2.302,3.443c0.974,0.988,2.122,1.762,3.443,2.322
		s2.729,0.841,4.224,0.841c1.067,0,2.095-0.146,3.083-0.44c0.987-0.293,1.915-0.714,2.783-1.261
		c0.867-0.547,1.642-1.215,2.322-2.002s1.234-1.662,1.662-2.623l8.008,8.048c-1.015,1.441-2.182,2.736-3.503,3.884
		c-1.321,1.148-2.75,2.122-4.284,2.923c-1.535,0.801-3.15,1.408-4.845,1.821c-1.695,0.414-3.437,0.621-5.225,0.621
		c-3.017,0-5.853-0.567-8.508-1.701c-2.656-1.135-4.979-2.689-6.967-4.665c-1.989-1.975-3.557-4.284-4.705-6.927
		c-1.148-2.643-1.722-5.472-1.722-8.488c0-3.283,0.574-6.353,1.722-9.209c1.147-2.855,2.716-5.346,4.705-7.467
		c1.988-2.123,4.311-3.797,6.967-5.025c2.656-1.228,5.492-1.842,8.508-1.842c1.788,0,3.543,0.228,5.265,0.681
		c1.722,0.454,3.363,1.115,4.925,1.981c1.562,0.868,3.003,1.93,4.324,3.184C618.206,378.901,619.347,380.343,620.308,381.971z"/>
	<path fill="#363636" d="M636.563,416.324h-10.931v-59.938h10.931v18.938c1.308-0.987,2.656-1.688,4.044-2.102
		c1.388-0.414,2.803-0.621,4.244-0.621c2.643,0,5.125,0.5,7.447,1.502c2.322,1,4.344,2.376,6.066,4.123
		c1.721,1.749,3.082,3.791,4.084,6.127c1,2.336,1.501,4.824,1.501,7.467v24.504h-11.011V391.82h0.08
		c0-1.121-0.214-2.182-0.641-3.184c-0.428-1-1.015-1.874-1.762-2.622c-0.748-0.747-1.615-1.334-2.603-1.762
		c-0.987-0.427-2.042-0.641-3.163-0.641c-1.148,0-2.229,0.214-3.243,0.641c-1.015,0.428-1.896,1.015-2.643,1.762
		c-0.748,0.748-1.335,1.622-1.762,2.622c-0.427,1.002-0.641,2.063-0.641,3.184V416.324z"/>
	<path fill="#363636" d="M726.251,416.324H715.36v-27.227c0-0.747-0.14-1.454-0.421-2.122c-0.279-0.667-0.674-1.254-1.181-1.762
		c-0.507-0.507-1.095-0.901-1.762-1.181c-0.667-0.281-1.375-0.421-2.122-0.421c-0.748,0-1.448,0.14-2.102,0.421
		c-0.654,0.279-1.229,0.674-1.723,1.181c-0.494,0.508-0.881,1.095-1.16,1.762c-0.281,0.668-0.421,1.375-0.421,2.122v27.227h-10.931
		v-27.227c0-0.747-0.141-1.454-0.42-2.122c-0.281-0.667-0.675-1.254-1.182-1.762c-0.508-0.507-1.095-0.901-1.762-1.181
		c-0.668-0.281-1.375-0.421-2.122-0.421s-1.448,0.14-2.103,0.421c-0.654,0.279-1.228,0.674-1.721,1.181
		c-0.494,0.508-0.881,1.095-1.162,1.762c-0.279,0.668-0.42,1.375-0.42,2.122v27.227h-10.931v-42.882h2.643l2.963,3.283
		c1.521-1.281,3.196-2.275,5.024-2.983c1.828-0.706,3.73-1.061,5.706-1.061c2.002,0,3.957,0.374,5.866,1.121
		c1.908,0.748,3.583,2.042,5.024,3.884c0.667-0.907,1.428-1.682,2.282-2.322c0.854-0.641,1.755-1.161,2.703-1.562
		c0.947-0.4,1.928-0.687,2.942-0.861c1.015-0.173,2.015-0.26,3.003-0.26c2.269,0,4.397,0.428,6.387,1.281
		c1.988,0.854,3.723,2.021,5.205,3.504c1.48,1.48,2.648,3.223,3.503,5.225s1.281,4.138,1.281,6.406V416.324z"/>
	<path fill="#363636" d="M775.739,416.324h-2.643l-4.244-5.886c-1.041,0.935-2.142,1.809-3.304,2.622
		c-1.16,0.815-2.382,1.521-3.663,2.123c-1.281,0.6-2.597,1.074-3.944,1.421s-2.716,0.521-4.104,0.521
		c-3.017,0-5.853-0.508-8.508-1.521c-2.656-1.014-4.979-2.488-6.967-4.424c-1.989-1.936-3.558-4.305-4.705-7.107
		c-1.148-2.803-1.722-5.992-1.722-9.569c0-3.336,0.573-6.399,1.722-9.188c1.147-2.789,2.716-5.186,4.705-7.188
		c1.988-2.002,4.311-3.557,6.967-4.664c2.655-1.107,5.491-1.662,8.508-1.662c1.388,0,2.763,0.174,4.124,0.521
		c1.361,0.348,2.683,0.828,3.964,1.441c1.281,0.614,2.502,1.335,3.664,2.162c1.16,0.828,2.248,1.722,3.263,2.683l4.244-5.085h2.643
		V416.324z M764.729,394.503c0-1.494-0.287-2.942-0.861-4.345c-0.574-1.4-1.354-2.643-2.342-3.723
		c-0.988-1.082-2.143-1.948-3.463-2.604c-1.322-0.653-2.73-0.98-4.225-0.98c-1.495,0-2.902,0.254-4.225,0.761
		c-1.32,0.508-2.469,1.255-3.443,2.242c-0.975,0.988-1.741,2.209-2.302,3.663c-0.561,1.456-0.841,3.117-0.841,4.985
		c0,1.869,0.28,3.53,0.841,4.985s1.327,2.676,2.302,3.663c0.975,0.988,2.123,1.735,3.443,2.242c1.322,0.508,2.729,0.761,4.225,0.761
		c1.494,0,2.902-0.326,4.225-0.98c1.32-0.654,2.475-1.521,3.463-2.604c0.987-1.08,1.768-2.322,2.342-3.723
		C764.441,397.445,764.729,395.998,764.729,394.503z"/>
	<path fill="#363636" d="M794.998,416.324h-10.931v-42.882h2.643l3.604,5.085c1.762-1.602,3.764-2.836,6.006-3.703
		s4.564-1.302,6.967-1.302h9.649v10.891h-9.649c-1.147,0-2.229,0.214-3.243,0.641c-1.015,0.428-1.896,1.015-2.643,1.762
		c-0.748,0.748-1.335,1.629-1.762,2.643c-0.428,1.015-0.641,2.096-0.641,3.243V416.324z"/>
	<path fill="#363636" d="M829.031,416.324h-11.011v-59.938h11.011v37.797l16.296-20.66h12.572l-14.214,17.857l14.214,24.944h-12.572
		l-8.688-15.575l-7.607,10.09V416.324z"/>
</g>
<circle fill="#078944" cx="497.266" cy="433.469" r="10.352"/>
<circle fill="#078944" cx="427.344" cy="459.641" r="10.352"/>
<circle fill="#078944" cx="399.219" cy="402.414" r="10.352"/>
<circle fill="#078944" cx="399.219" cy="350.711" r="10.352"/>
<rect x="513" y="427.805" fill="none" width="382" height="21.484"/>
<g enable-background="new    ">
	<path fill="#363636" d="M519.819,441.692h-2.653v-10.641h-3.999v-2.663h10.641v2.663h-3.989V441.692z"/>
	<path fill="#363636" d="M527.343,439.262c0.099,0.031,0.198,0.051,0.297,0.061c0.099,0.009,0.198,0.014,0.297,0.014
		c0.247,0,0.485-0.034,0.714-0.103c0.229-0.067,0.444-0.165,0.645-0.292c0.201-0.126,0.38-0.281,0.538-0.464
		c0.157-0.182,0.286-0.385,0.385-0.607l1.855,1.865c-0.235,0.334-0.506,0.634-0.812,0.899c-0.307,0.266-0.637,0.491-0.993,0.677
		c-0.355,0.186-0.729,0.327-1.122,0.423c-0.393,0.096-0.797,0.144-1.211,0.144c-0.699,0-1.356-0.13-1.972-0.39
		c-0.615-0.26-1.153-0.622-1.614-1.085c-0.46-0.465-0.824-1.017-1.09-1.656c-0.266-0.641-0.399-1.344-0.399-2.111
		c0-0.785,0.133-1.502,0.399-2.152c0.266-0.648,0.629-1.202,1.09-1.66c0.461-0.458,0.999-0.813,1.614-1.066
		c0.616-0.254,1.272-0.381,1.972-0.381c0.414,0,0.819,0.05,1.215,0.148c0.396,0.099,0.771,0.241,1.127,0.427
		c0.355,0.186,0.688,0.413,0.997,0.682c0.309,0.27,0.581,0.571,0.816,0.905L527.343,439.262z M528.642,434.038
		c-0.118-0.043-0.233-0.07-0.348-0.083c-0.115-0.013-0.234-0.019-0.357-0.019c-0.347,0-0.673,0.063-0.979,0.19
		c-0.307,0.127-0.572,0.308-0.798,0.542c-0.226,0.235-0.404,0.519-0.534,0.85s-0.195,0.703-0.195,1.117
		c0,0.094,0.005,0.198,0.014,0.316c0.01,0.117,0.025,0.236,0.047,0.356c0.021,0.121,0.047,0.237,0.079,0.349
		c0.031,0.111,0.071,0.21,0.121,0.297L528.642,434.038z"/>
	<path fill="#363636" d="M541.973,433.732l-1.855,1.864c-0.093-0.26-0.22-0.492-0.38-0.7c-0.161-0.207-0.342-0.382-0.542-0.524
		c-0.201-0.142-0.419-0.25-0.654-0.324c-0.235-0.074-0.477-0.111-0.724-0.111c-0.347,0-0.673,0.071-0.979,0.213
		c-0.307,0.143-0.572,0.343-0.798,0.599c-0.226,0.257-0.404,0.562-0.534,0.914s-0.195,0.742-0.195,1.169
		c0,0.347,0.065,0.671,0.195,0.975c0.13,0.303,0.308,0.568,0.534,0.797c0.226,0.229,0.491,0.408,0.798,0.539
		c0.306,0.129,0.632,0.194,0.979,0.194c0.247,0,0.485-0.034,0.714-0.103c0.229-0.067,0.444-0.165,0.645-0.292
		c0.201-0.126,0.38-0.281,0.538-0.464c0.157-0.182,0.286-0.385,0.385-0.607l1.855,1.865c-0.235,0.334-0.506,0.634-0.812,0.899
		c-0.307,0.266-0.637,0.491-0.993,0.677c-0.355,0.186-0.729,0.327-1.122,0.423c-0.393,0.096-0.797,0.144-1.211,0.144
		c-0.699,0-1.356-0.132-1.972-0.395c-0.615-0.263-1.153-0.623-1.614-1.08c-0.46-0.458-0.824-0.993-1.09-1.605
		c-0.266-0.612-0.399-1.268-0.399-1.967c0-0.761,0.133-1.472,0.399-2.134c0.266-0.662,0.629-1.238,1.09-1.73
		c0.461-0.491,0.999-0.88,1.614-1.164c0.616-0.284,1.272-0.427,1.972-0.427c0.414,0,0.821,0.053,1.22,0.158
		c0.399,0.104,0.779,0.258,1.142,0.459c0.361,0.201,0.695,0.446,1.002,0.737C541.486,433.021,541.75,433.355,541.973,433.732z"/>
	<path fill="#363636" d="M545.74,441.692h-2.533v-13.889h2.533v4.389c0.303-0.229,0.615-0.391,0.937-0.487
		c0.321-0.096,0.649-0.144,0.983-0.144c0.612,0,1.188,0.116,1.726,0.348c0.538,0.232,1.007,0.551,1.405,0.956
		c0.399,0.405,0.715,0.878,0.946,1.419c0.232,0.542,0.348,1.118,0.348,1.73v5.678h-2.551v-5.678h0.019
		c0-0.26-0.05-0.506-0.148-0.737c-0.099-0.232-0.235-0.435-0.408-0.608c-0.173-0.173-0.375-0.309-0.603-0.408
		c-0.229-0.099-0.473-0.148-0.733-0.148c-0.266,0-0.517,0.05-0.751,0.148c-0.235,0.1-0.439,0.235-0.612,0.408
		c-0.173,0.174-0.31,0.376-0.408,0.608c-0.099,0.231-0.148,0.478-0.148,0.737V441.692z"/>
	<path fill="#363636" d="M563.153,439.262c0.099,0.031,0.198,0.051,0.297,0.061c0.099,0.009,0.198,0.014,0.297,0.014
		c0.247,0,0.485-0.034,0.714-0.103c0.229-0.067,0.444-0.165,0.645-0.292c0.201-0.126,0.38-0.281,0.538-0.464
		c0.157-0.182,0.286-0.385,0.385-0.607l1.855,1.865c-0.235,0.334-0.506,0.634-0.812,0.899c-0.307,0.266-0.637,0.491-0.993,0.677
		c-0.355,0.186-0.729,0.327-1.122,0.423c-0.393,0.096-0.797,0.144-1.211,0.144c-0.699,0-1.356-0.13-1.972-0.39
		c-0.615-0.26-1.153-0.622-1.614-1.085c-0.46-0.465-0.824-1.017-1.09-1.656c-0.266-0.641-0.399-1.344-0.399-2.111
		c0-0.785,0.133-1.502,0.399-2.152c0.266-0.648,0.629-1.202,1.09-1.66c0.461-0.458,0.999-0.813,1.614-1.066
		c0.616-0.254,1.272-0.381,1.972-0.381c0.414,0,0.819,0.05,1.215,0.148c0.396,0.099,0.771,0.241,1.127,0.427
		c0.355,0.186,0.688,0.413,0.997,0.682c0.309,0.27,0.581,0.571,0.816,0.905L563.153,439.262z M564.452,434.038
		c-0.118-0.043-0.233-0.07-0.348-0.083c-0.115-0.013-0.234-0.019-0.357-0.019c-0.347,0-0.673,0.063-0.979,0.19
		c-0.307,0.127-0.572,0.308-0.798,0.542c-0.226,0.235-0.404,0.519-0.534,0.85s-0.195,0.703-0.195,1.117
		c0,0.094,0.005,0.198,0.014,0.316c0.01,0.117,0.025,0.236,0.047,0.356c0.021,0.121,0.047,0.237,0.079,0.349
		c0.031,0.111,0.071,0.21,0.121,0.297L564.452,434.038z"/>
	<path fill="#363636" d="M571.865,441.692l-3.785-9.936h2.885l2.171,6.197l2.162-6.197h2.895l-3.785,9.936H571.865z"/>
	<path fill="#363636" d="M582.821,439.262c0.099,0.031,0.198,0.051,0.297,0.061c0.099,0.009,0.198,0.014,0.297,0.014
		c0.247,0,0.485-0.034,0.714-0.103c0.229-0.067,0.444-0.165,0.645-0.292c0.201-0.126,0.38-0.281,0.538-0.464
		c0.157-0.182,0.286-0.385,0.385-0.607l1.855,1.865c-0.235,0.334-0.506,0.634-0.812,0.899c-0.307,0.266-0.637,0.491-0.993,0.677
		c-0.355,0.186-0.729,0.327-1.122,0.423c-0.393,0.096-0.797,0.144-1.211,0.144c-0.699,0-1.356-0.13-1.972-0.39
		c-0.615-0.26-1.153-0.622-1.614-1.085c-0.46-0.465-0.824-1.017-1.09-1.656c-0.266-0.641-0.399-1.344-0.399-2.111
		c0-0.785,0.133-1.502,0.399-2.152c0.266-0.648,0.629-1.202,1.09-1.66c0.461-0.458,0.999-0.813,1.614-1.066
		c0.616-0.254,1.272-0.381,1.972-0.381c0.414,0,0.819,0.05,1.215,0.148c0.396,0.099,0.771,0.241,1.127,0.427
		c0.355,0.186,0.688,0.413,0.997,0.682c0.309,0.27,0.581,0.571,0.816,0.905L582.821,439.262z M584.12,434.038
		c-0.118-0.043-0.233-0.07-0.348-0.083c-0.115-0.013-0.234-0.019-0.357-0.019c-0.347,0-0.673,0.063-0.979,0.19
		c-0.307,0.127-0.572,0.308-0.798,0.542c-0.226,0.235-0.404,0.519-0.534,0.85s-0.195,0.703-0.195,1.117
		c0,0.094,0.005,0.198,0.014,0.316c0.01,0.117,0.025,0.236,0.047,0.356c0.021,0.121,0.047,0.237,0.079,0.349
		c0.031,0.111,0.071,0.21,0.121,0.297L584.12,434.038z"/>
	<path fill="#363636" d="M591.375,441.692h-2.533v-9.936h0.612l0.835,0.965c0.408-0.371,0.871-0.657,1.387-0.858
		c0.517-0.201,1.056-0.302,1.619-0.302c0.606,0,1.178,0.116,1.716,0.348c0.538,0.232,1.008,0.551,1.41,0.956
		c0.402,0.405,0.719,0.878,0.951,1.419c0.232,0.542,0.348,1.118,0.348,1.73v5.678h-2.533v-5.678c0-0.26-0.05-0.506-0.148-0.737
		c-0.099-0.232-0.235-0.435-0.408-0.608c-0.173-0.173-0.375-0.309-0.603-0.408c-0.229-0.099-0.473-0.148-0.733-0.148
		c-0.266,0-0.517,0.05-0.751,0.148c-0.235,0.1-0.439,0.235-0.612,0.408c-0.173,0.174-0.31,0.376-0.408,0.608
		c-0.099,0.231-0.148,0.478-0.148,0.737V441.692z"/>
	<path fill="#363636" d="M604.373,441.692c-0.612,0-1.188-0.116-1.726-0.348c-0.538-0.232-1.01-0.551-1.415-0.956
		c-0.405-0.404-0.724-0.876-0.956-1.415c-0.231-0.537-0.348-1.113-0.348-1.725v-2.951h-1.234v-2.523h1.234v-3.971h2.523v3.971h3.841
		v2.523h-3.841v2.951c0,0.266,0.049,0.515,0.148,0.746c0.099,0.232,0.235,0.435,0.408,0.607c0.173,0.174,0.377,0.312,0.612,0.413
		c0.235,0.103,0.485,0.153,0.751,0.153h1.92v2.523H604.373z"/>
	<path fill="#363636" d="M613.167,441.692h-5.789v-2.523h5.789c0.173,0,0.321-0.062,0.445-0.186
		c0.124-0.124,0.186-0.272,0.186-0.445c0-0.18-0.062-0.297-0.186-0.353c-0.124-0.056-0.272-0.083-0.445-0.083h-2.635
		c-0.439,0-0.851-0.084-1.234-0.251c-0.384-0.167-0.718-0.395-1.002-0.682c-0.285-0.288-0.509-0.623-0.672-1.007
		c-0.164-0.384-0.246-0.795-0.246-1.234c0-0.438,0.082-0.85,0.246-1.233c0.164-0.384,0.388-0.718,0.672-1.002
		c0.284-0.284,0.618-0.509,1.002-0.673c0.383-0.163,0.794-0.246,1.234-0.246h5.13v2.523h-5.13c-0.173,0-0.322,0.063-0.445,0.186
		c-0.124,0.124-0.186,0.272-0.186,0.445c0,0.18,0.062,0.333,0.186,0.46c0.124,0.127,0.272,0.19,0.445,0.19h2.635
		c0.433,0,0.841,0.072,1.225,0.218c0.383,0.146,0.717,0.348,1.002,0.607c0.284,0.26,0.51,0.572,0.677,0.937
		c0.167,0.365,0.25,0.765,0.25,1.197c0,0.439-0.083,0.849-0.25,1.229c-0.167,0.38-0.393,0.714-0.677,1.002
		c-0.285,0.287-0.619,0.514-1.002,0.677C614.008,441.61,613.6,441.692,613.167,441.692z"/>
	<path fill="#363636" d="M625.97,429.057c0,0.235-0.045,0.454-0.135,0.659c-0.089,0.203-0.212,0.382-0.366,0.533
		c-0.155,0.151-0.335,0.272-0.543,0.361c-0.207,0.09-0.428,0.135-0.663,0.135c-0.235,0-0.456-0.045-0.663-0.135
		c-0.208-0.089-0.387-0.21-0.538-0.361c-0.152-0.151-0.272-0.33-0.362-0.533c-0.089-0.205-0.134-0.424-0.134-0.659
		c0-0.229,0.045-0.446,0.134-0.654c0.09-0.207,0.21-0.386,0.362-0.538c0.151-0.151,0.331-0.271,0.538-0.361
		c0.207-0.09,0.428-0.135,0.663-0.135c0.235,0,0.456,0.045,0.663,0.135c0.208,0.09,0.388,0.21,0.543,0.361
		c0.154,0.152,0.277,0.331,0.366,0.538C625.925,428.61,625.97,428.828,625.97,429.057z M625.534,441.692h-2.551v-9.936h2.551
		V441.692z"/>
	<path fill="#363636" d="M629.997,441.692h-2.533v-9.936h0.612l0.835,0.965c0.408-0.371,0.871-0.657,1.387-0.858
		c0.517-0.201,1.056-0.302,1.619-0.302c0.606,0,1.178,0.116,1.716,0.348c0.538,0.232,1.008,0.551,1.41,0.956
		c0.402,0.405,0.719,0.878,0.951,1.419c0.232,0.542,0.348,1.118,0.348,1.73v5.678h-2.533v-5.678c0-0.26-0.05-0.506-0.148-0.737
		c-0.099-0.232-0.235-0.435-0.408-0.608c-0.173-0.173-0.375-0.309-0.603-0.408c-0.229-0.099-0.473-0.148-0.733-0.148
		c-0.266,0-0.517,0.05-0.751,0.148c-0.235,0.1-0.439,0.235-0.612,0.408c-0.173,0.174-0.31,0.376-0.408,0.608
		c-0.099,0.231-0.148,0.478-0.148,0.737V441.692z"/>
	<path fill="#363636" d="M654.35,440.329c-0.619,0.531-1.312,0.939-2.078,1.225c-0.768,0.284-1.563,0.426-2.385,0.426
		c-0.631,0-1.238-0.082-1.822-0.245c-0.585-0.164-1.132-0.396-1.643-0.696c-0.51-0.3-0.976-0.66-1.396-1.08
		c-0.42-0.421-0.78-0.887-1.08-1.396c-0.301-0.511-0.532-1.058-0.696-1.643c-0.163-0.584-0.245-1.191-0.245-1.822
		s0.082-1.24,0.245-1.828c0.164-0.588,0.396-1.137,0.696-1.646c0.3-0.511,0.66-0.976,1.08-1.396c0.421-0.421,0.887-0.78,1.396-1.081
		c0.511-0.3,1.058-0.531,1.643-0.695c0.584-0.164,1.191-0.246,1.822-0.246c0.822,0,1.617,0.141,2.385,0.422
		c0.767,0.282,1.459,0.691,2.078,1.229l-1.41,2.319c-0.39-0.421-0.851-0.743-1.383-0.97c-0.531-0.226-1.088-0.338-1.67-0.338
		c-0.588,0-1.138,0.111-1.65,0.334c-0.514,0.223-0.963,0.523-1.346,0.904c-0.384,0.38-0.687,0.829-0.909,1.345
		c-0.223,0.517-0.334,1.065-0.334,1.647c0,0.581,0.111,1.127,0.334,1.637c0.223,0.511,0.525,0.957,0.909,1.341
		c0.383,0.384,0.832,0.687,1.346,0.909c0.513,0.223,1.063,0.334,1.65,0.334c0.582,0,1.139-0.112,1.67-0.339
		c0.532-0.226,0.993-0.549,1.383-0.97L654.35,440.329z"/>
	<path fill="#363636" d="M664.879,436.636c0,0.742-0.133,1.434-0.398,2.074c-0.266,0.64-0.628,1.193-1.086,1.66
		c-0.457,0.468-0.994,0.835-1.609,1.104c-0.615,0.269-1.275,0.403-1.98,0.403c-0.699,0-1.355-0.135-1.972-0.403
		c-0.615-0.27-1.153-0.637-1.614-1.104c-0.461-0.467-0.824-1.021-1.09-1.66c-0.266-0.641-0.398-1.332-0.398-2.074
		c0-0.754,0.133-1.453,0.398-2.096c0.266-0.644,0.629-1.198,1.09-1.666c0.461-0.467,0.999-0.833,1.614-1.1
		c0.616-0.266,1.272-0.398,1.972-0.398c0.705,0,1.365,0.125,1.98,0.376c0.615,0.25,1.152,0.606,1.609,1.066
		c0.458,0.461,0.82,1.015,1.086,1.661S664.879,435.845,664.879,436.636z M662.328,436.636c0-0.408-0.066-0.777-0.199-1.108
		c-0.133-0.33-0.314-0.615-0.543-0.854c-0.229-0.237-0.496-0.42-0.803-0.547c-0.306-0.127-0.633-0.19-0.979-0.19
		c-0.347,0-0.673,0.063-0.979,0.19c-0.307,0.127-0.572,0.31-0.798,0.547c-0.226,0.238-0.403,0.523-0.534,0.854
		c-0.129,0.331-0.194,0.7-0.194,1.108c0,0.384,0.065,0.739,0.194,1.067c0.131,0.328,0.309,0.612,0.534,0.854s0.491,0.432,0.798,0.57
		c0.306,0.14,0.632,0.209,0.979,0.209c0.346,0,0.673-0.065,0.979-0.194c0.307-0.131,0.574-0.313,0.803-0.548s0.41-0.52,0.543-0.854
		S662.328,437.038,662.328,436.636z"/>
	<path fill="#363636" d="M668.832,445.478h-2.552v-13.721h0.612l1.012,1.196c0.229-0.217,0.479-0.421,0.751-0.612
		s0.556-0.357,0.849-0.496c0.294-0.14,0.599-0.249,0.914-0.33c0.315-0.08,0.634-0.12,0.955-0.12c0.699,0,1.356,0.125,1.972,0.376
		c0.616,0.25,1.153,0.604,1.614,1.063c0.461,0.457,0.824,1.01,1.09,1.655c0.266,0.646,0.399,1.362,0.399,2.147
		c0,0.816-0.134,1.552-0.399,2.204s-0.629,1.206-1.09,1.66c-0.461,0.455-0.998,0.803-1.614,1.044
		c-0.615,0.241-1.272,0.361-1.972,0.361c-0.223,0-0.443-0.024-0.663-0.074c-0.22-0.049-0.436-0.115-0.649-0.199
		c-0.213-0.083-0.424-0.178-0.631-0.283c-0.207-0.104-0.406-0.213-0.598-0.324V445.478z M673.906,436.636
		c0-0.42-0.066-0.797-0.199-1.131s-0.314-0.617-0.543-0.85c-0.229-0.231-0.498-0.409-0.807-0.533
		c-0.311-0.124-0.638-0.186-0.984-0.186c-0.346,0-0.672,0.062-0.979,0.186c-0.306,0.124-0.574,0.302-0.803,0.533
		c-0.229,0.232-0.409,0.516-0.542,0.85c-0.134,0.334-0.2,0.711-0.2,1.131c0,0.402,0.066,0.771,0.2,1.104
		c0.133,0.334,0.313,0.618,0.542,0.854s0.497,0.417,0.803,0.548c0.307,0.129,0.633,0.194,0.979,0.194
		c0.347,0,0.674-0.065,0.984-0.194c0.309-0.131,0.578-0.313,0.807-0.548s0.41-0.52,0.543-0.854S673.906,437.038,673.906,436.636z"/>
	<path fill="#363636" d="M681.801,439.262c0.1,0.031,0.198,0.051,0.297,0.061c0.1,0.009,0.198,0.014,0.297,0.014
		c0.248,0,0.486-0.034,0.715-0.103c0.229-0.067,0.443-0.165,0.645-0.292c0.201-0.126,0.381-0.281,0.539-0.464
		c0.156-0.182,0.285-0.385,0.385-0.607l1.855,1.865c-0.236,0.334-0.506,0.634-0.813,0.899s-0.637,0.491-0.992,0.677
		s-0.73,0.327-1.123,0.423s-0.797,0.144-1.211,0.144c-0.699,0-1.355-0.13-1.971-0.39s-1.154-0.622-1.615-1.085
		c-0.46-0.465-0.824-1.017-1.09-1.656c-0.266-0.641-0.398-1.344-0.398-2.111c0-0.785,0.133-1.502,0.398-2.152
		c0.266-0.648,0.63-1.202,1.09-1.66c0.461-0.458,1-0.813,1.615-1.066c0.615-0.254,1.271-0.381,1.971-0.381
		c0.414,0,0.82,0.05,1.216,0.148s0.771,0.241,1.128,0.427c0.355,0.186,0.688,0.413,0.996,0.682c0.31,0.27,0.582,0.571,0.816,0.905
		L681.801,439.262z M683.1,434.038c-0.117-0.043-0.232-0.07-0.348-0.083c-0.114-0.013-0.233-0.019-0.357-0.019
		c-0.346,0-0.672,0.063-0.979,0.19s-0.572,0.308-0.797,0.542c-0.227,0.235-0.404,0.519-0.534,0.85s-0.194,0.703-0.194,1.117
		c0,0.094,0.004,0.198,0.014,0.316c0.01,0.117,0.024,0.236,0.047,0.356c0.021,0.121,0.047,0.237,0.078,0.349s0.07,0.21,0.121,0.297
		L683.1,434.038z"/>
	<path fill="#363636" d="M690.355,441.692h-2.533v-9.936h0.612l0.835,0.965c0.408-0.371,0.871-0.657,1.387-0.858
		c0.517-0.201,1.057-0.302,1.619-0.302c0.605,0,1.178,0.116,1.717,0.348c0.537,0.232,1.008,0.551,1.41,0.956
		c0.401,0.405,0.719,0.878,0.95,1.419c0.232,0.542,0.349,1.118,0.349,1.73v5.678h-2.533v-5.678c0-0.26-0.05-0.506-0.148-0.737
		c-0.1-0.232-0.235-0.435-0.408-0.608c-0.174-0.173-0.375-0.309-0.604-0.408c-0.229-0.099-0.473-0.148-0.732-0.148
		c-0.266,0-0.517,0.05-0.752,0.148c-0.234,0.1-0.439,0.235-0.611,0.408c-0.174,0.174-0.311,0.376-0.408,0.608
		c-0.1,0.231-0.148,0.478-0.148,0.737V441.692z"/>
	<path fill="#363636" d="M701.033,441.692H698.5v-13.889h2.533v4.389c0.303-0.229,0.615-0.391,0.938-0.487
		c0.32-0.096,0.648-0.144,0.982-0.144c0.613,0,1.188,0.116,1.727,0.348c0.537,0.232,1.006,0.551,1.404,0.956
		c0.4,0.405,0.715,0.878,0.947,1.419c0.232,0.542,0.348,1.118,0.348,1.73v5.678h-2.551v-5.678h0.018c0-0.26-0.049-0.506-0.148-0.737
		c-0.099-0.232-0.234-0.435-0.408-0.608c-0.173-0.173-0.374-0.309-0.603-0.408c-0.229-0.099-0.474-0.148-0.733-0.148
		c-0.266,0-0.516,0.05-0.751,0.148c-0.235,0.1-0.439,0.235-0.612,0.408c-0.174,0.174-0.31,0.376-0.408,0.608
		c-0.1,0.231-0.148,0.478-0.148,0.737V441.692z"/>
	<path fill="#363636" d="M718.799,441.692h-0.611l-0.984-1.363c-0.24,0.216-0.496,0.419-0.765,0.607
		c-0.27,0.188-0.552,0.353-0.849,0.491c-0.297,0.14-0.602,0.249-0.914,0.329c-0.313,0.081-0.63,0.121-0.951,0.121
		c-0.699,0-1.355-0.117-1.972-0.353c-0.615-0.235-1.153-0.576-1.614-1.025c-0.461-0.448-0.824-0.997-1.09-1.646
		s-0.398-1.389-0.398-2.218c0-0.772,0.133-1.482,0.398-2.129c0.266-0.646,0.629-1.201,1.09-1.665s0.999-0.824,1.614-1.081
		c0.616-0.256,1.272-0.385,1.972-0.385c0.321,0,0.641,0.04,0.955,0.121c0.316,0.08,0.622,0.191,0.919,0.334
		c0.297,0.142,0.58,0.309,0.849,0.5c0.27,0.192,0.521,0.399,0.756,0.622l0.984-1.179h0.611V441.692z M716.248,436.636
		c0-0.346-0.066-0.682-0.199-1.006c-0.133-0.325-0.314-0.612-0.543-0.863c-0.229-0.25-0.496-0.451-0.803-0.603
		c-0.306-0.151-0.633-0.228-0.979-0.228c-0.347,0-0.673,0.059-0.979,0.176c-0.307,0.118-0.572,0.291-0.798,0.52
		c-0.226,0.229-0.403,0.513-0.534,0.85c-0.129,0.337-0.194,0.722-0.194,1.154c0,0.434,0.065,0.818,0.194,1.155
		c0.131,0.338,0.309,0.62,0.534,0.849c0.226,0.229,0.491,0.402,0.798,0.52c0.306,0.118,0.632,0.177,0.979,0.177
		c0.346,0,0.673-0.075,0.979-0.228c0.307-0.151,0.574-0.353,0.803-0.603c0.229-0.251,0.41-0.538,0.543-0.863
		C716.182,437.318,716.248,436.982,716.248,436.636z"/>
	<path fill="#363636" d="M730.35,440.44c0,0.698-0.133,1.354-0.398,1.967c-0.267,0.611-0.63,1.146-1.09,1.604
		c-0.461,0.458-1,0.819-1.615,1.085c-0.615,0.267-1.272,0.399-1.971,0.399l-1.271-0.019v-2.533l1.252,0.02
		c0.396,0,0.733-0.052,1.012-0.153c0.278-0.103,0.514-0.241,0.705-0.418c0.191-0.176,0.345-0.379,0.459-0.607
		c0.115-0.229,0.205-0.47,0.273-0.724c-0.099,0.161-0.24,0.292-0.426,0.395c-0.186,0.102-0.392,0.186-0.617,0.25
		c-0.227,0.065-0.461,0.11-0.705,0.135s-0.473,0.037-0.682,0.037c-0.699,0-1.356-0.121-1.973-0.361
		c-0.615-0.242-1.152-0.586-1.613-1.035c-0.461-0.448-0.824-0.997-1.09-1.646c-0.267-0.649-0.399-1.383-0.399-2.199
		c0-0.748,0.133-1.443,0.399-2.087c0.266-0.644,0.629-1.2,1.09-1.67s0.998-0.838,1.613-1.104c0.616-0.266,1.273-0.398,1.973-0.398
		c0.32,0,0.64,0.04,0.955,0.121c0.315,0.08,0.621,0.191,0.918,0.334c0.297,0.142,0.58,0.309,0.85,0.5
		c0.27,0.192,0.521,0.399,0.756,0.622l0.983-1.179h0.612V440.44z M727.799,436.636c0-0.346-0.066-0.682-0.199-1.006
		c-0.134-0.325-0.314-0.612-0.543-0.863c-0.229-0.25-0.496-0.451-0.803-0.603s-0.633-0.228-0.979-0.228
		c-0.348,0-0.674,0.059-0.979,0.176c-0.307,0.118-0.572,0.291-0.799,0.52c-0.226,0.229-0.403,0.513-0.533,0.85
		s-0.195,0.722-0.195,1.154c0,0.415,0.065,0.788,0.195,1.118c0.13,0.331,0.308,0.614,0.533,0.849
		c0.227,0.235,0.492,0.417,0.799,0.543c0.305,0.127,0.631,0.19,0.979,0.19c0.346,0,0.672-0.075,0.979-0.228
		c0.307-0.151,0.573-0.353,0.803-0.603c0.229-0.251,0.409-0.538,0.543-0.863C727.732,437.318,727.799,436.982,727.799,436.636z"/>
	<path fill="#363636" d="M736.231,439.262c0.099,0.031,0.198,0.051,0.297,0.061c0.099,0.009,0.198,0.014,0.297,0.014
		c0.247,0,0.485-0.034,0.714-0.103c0.229-0.067,0.444-0.165,0.646-0.292c0.2-0.126,0.38-0.281,0.538-0.464
		c0.157-0.182,0.285-0.385,0.385-0.607l1.855,1.865c-0.235,0.334-0.506,0.634-0.812,0.899c-0.307,0.266-0.638,0.491-0.993,0.677
		s-0.729,0.327-1.122,0.423c-0.394,0.096-0.797,0.144-1.211,0.144c-0.699,0-1.356-0.13-1.972-0.39s-1.153-0.622-1.614-1.085
		c-0.46-0.465-0.824-1.017-1.09-1.656c-0.267-0.641-0.399-1.344-0.399-2.111c0-0.785,0.133-1.502,0.399-2.152
		c0.266-0.648,0.63-1.202,1.09-1.66c0.461-0.458,0.999-0.813,1.614-1.066c0.615-0.254,1.272-0.381,1.972-0.381
		c0.414,0,0.819,0.05,1.216,0.148c0.395,0.099,0.771,0.241,1.127,0.427s0.688,0.413,0.997,0.682c0.31,0.27,0.581,0.571,0.816,0.905
		L736.231,439.262z M737.53,434.038c-0.118-0.043-0.233-0.07-0.348-0.083s-0.233-0.019-0.357-0.019c-0.347,0-0.673,0.063-0.979,0.19
		c-0.307,0.127-0.572,0.308-0.798,0.542c-0.227,0.235-0.404,0.519-0.533,0.85c-0.131,0.331-0.195,0.703-0.195,1.117
		c0,0.094,0.005,0.198,0.014,0.316c0.01,0.117,0.025,0.236,0.047,0.356c0.021,0.121,0.047,0.237,0.078,0.349s0.071,0.21,0.121,0.297
		L737.53,434.038z"/>
	<path fill="#363636" d="M744.785,441.692h-2.533v-9.936h0.613l0.834,0.965c0.408-0.371,0.871-0.657,1.387-0.858
		c0.518-0.201,1.057-0.302,1.619-0.302c0.606,0,1.179,0.116,1.717,0.348c0.538,0.232,1.008,0.551,1.41,0.956
		s0.719,0.878,0.951,1.419c0.232,0.542,0.348,1.118,0.348,1.73v5.678h-2.533v-5.678c0-0.26-0.049-0.506-0.148-0.737
		c-0.099-0.232-0.234-0.435-0.408-0.608c-0.173-0.173-0.374-0.309-0.603-0.408c-0.229-0.099-0.474-0.148-0.733-0.148
		c-0.266,0-0.516,0.05-0.751,0.148c-0.235,0.1-0.439,0.235-0.612,0.408c-0.174,0.174-0.31,0.376-0.408,0.608
		c-0.1,0.231-0.148,0.478-0.148,0.737V441.692z"/>
</g>
</svg>
