<?xml version="1.0" encoding="utf-8"?>
<!-- Generator: Adobe Illustrator 16.0.0, SVG Export Plug-In . SVG Version: 6.00 Build 0)  -->
<!DOCTYPE svg PUBLIC "-//W3C//DTD SVG 1.1//EN" "http://www.w3.org/Graphics/SVG/1.1/DTD/svg11.dtd">
<svg version="1.1" id="Layer_1" xmlns="http://www.w3.org/2000/svg" xmlns:xlink="http://www.w3.org/1999/xlink" x="0px" y="0px"
	 width="491.167px" height="156.167px" viewBox="384 325 491.167 156.167" enable-background="new 384 325 491.167 156.167"
	 xml:space="preserve">
<circle fill="#078944" cx="463.477" cy="387.375" r="15.039"/>
<circle fill="#078944" cx="463.477" cy="340.359" r="10.352"/>
<circle fill="#013E25" stroke="#231F20" stroke-miterlimit="10" cx="497.266" cy="433.469" r="5.664"/>
<circle fill="#013E25" stroke="#231F20" stroke-miterlimit="10" cx="427.344" cy="459.641" r="5.664"/>
<circle fill="#013E25" stroke="#231F20" stroke-miterlimit="10" cx="399.219" cy="402.414" r="5.664"/>
<circle fill="#013E25" stroke="#231F20" stroke-miterlimit="10" cx="399.219" cy="350.711" r="5.664"/>
<line fill="none" stroke="#078944" stroke-width="4" stroke-miterlimit="10" x1="463.477" y1="339.383" x2="463.477" y2="388.352"/>
<line fill="none" stroke="#078944" stroke-width="4" stroke-miterlimit="10" x1="463.477" y1="388.352" x2="497.266" y2="433.469"/>
<line fill="none" stroke="#078944" stroke-width="4" stroke-miterlimit="10" x1="463.477" y1="388.352" x2="427.344" y2="459.641"/>
<line fill="none" stroke="#078944" stroke-width="4" stroke-miterlimit="10" x1="463.477" y1="388.352" x2="399.219" y2="402.414"/>
<line fill="none" stroke="#078944" stroke-width="4" stroke-miterlimit="10" x1="399.219" y1="402.414" x2="399.219" y2="350.711"/>
<rect x="495.266" y="356.387" fill="none" width="564.401" height="71.354"/>
<g enable-background="new    ">
	<path fill="#FFFFFF" d="M524.694,416.324h-11.451v-45.925h-17.257v-11.491h45.925v11.491h-17.217V416.324L524.694,416.324z"/>
	<path fill="#FFFFFF" d="M557.166,405.834c0.427,0.134,0.854,0.221,1.281,0.26c0.427,0.041,0.854,0.062,1.28,0.062
		c1.067,0,2.096-0.146,3.084-0.44c0.986-0.293,1.914-0.714,2.782-1.261c0.867-0.547,1.643-1.215,2.322-2.002
		s1.234-1.662,1.662-2.623l8.008,8.048c-1.015,1.441-2.182,2.736-3.503,3.884c-1.321,1.148-2.75,2.122-4.284,2.923
		c-1.535,0.802-3.149,1.408-4.845,1.821c-1.695,0.414-3.438,0.621-5.225,0.621c-3.018,0-5.854-0.561-8.509-1.682
		s-4.979-2.684-6.967-4.686c-1.989-2.002-3.557-4.384-4.705-7.146c-1.147-2.763-1.722-5.798-1.722-9.108
		c0-3.39,0.574-6.486,1.722-9.289s2.716-5.19,4.705-7.167c1.988-1.975,4.312-3.51,6.967-4.604c2.656-1.095,5.492-1.643,8.509-1.643
		c1.788,0,3.537,0.214,5.244,0.642c1.709,0.428,3.33,1.041,4.865,1.842s2.969,1.781,4.305,2.943
		c1.334,1.159,2.509,2.462,3.522,3.902L557.166,405.834z M562.771,383.292c-0.507-0.187-1.008-0.307-1.5-0.36
		c-0.494-0.053-1.009-0.08-1.543-0.08c-1.494,0-2.902,0.274-4.224,0.82c-1.321,0.548-2.469,1.329-3.442,2.343
		c-0.976,1.016-1.742,2.236-2.303,3.663c-0.561,1.43-0.841,3.037-0.841,4.825c0,0.4,0.021,0.854,0.06,1.361
		c0.04,0.508,0.106,1.021,0.2,1.542c0.094,0.52,0.207,1.021,0.341,1.501c0.133,0.479,0.307,0.908,0.521,1.281L562.771,383.292z"/>
	<path fill="#FFFFFF" d="M620.308,381.971l-8.008,8.048c-0.399-1.12-0.948-2.128-1.642-3.021c-0.694-0.896-1.476-1.648-2.342-2.263
		c-0.868-0.613-1.81-1.081-2.823-1.401c-1.016-0.32-2.057-0.48-3.123-0.48c-1.495,0-2.903,0.309-4.225,0.922
		c-1.32,0.613-2.469,1.476-3.442,2.583c-0.976,1.106-1.742,2.422-2.302,3.942c-0.561,1.521-0.842,3.203-0.842,5.045
		c0,1.495,0.28,2.896,0.842,4.204c0.561,1.31,1.328,2.456,2.302,3.443c0.974,0.988,2.122,1.762,3.442,2.322
		c1.321,0.56,2.729,0.841,4.225,0.841c1.066,0,2.095-0.146,3.083-0.44c0.987-0.293,1.915-0.714,2.783-1.261
		c0.866-0.547,1.642-1.215,2.321-2.002c0.681-0.787,1.234-1.662,1.662-2.623l8.008,8.048c-1.015,1.441-2.182,2.736-3.503,3.884
		c-1.32,1.148-2.75,2.122-4.283,2.923c-1.535,0.802-3.15,1.408-4.846,1.821c-1.694,0.414-3.437,0.621-5.225,0.621
		c-3.017,0-5.853-0.567-8.508-1.701c-2.656-1.135-4.979-2.688-6.967-4.665c-1.989-1.975-3.558-4.284-4.705-6.927
		c-1.148-2.643-1.723-5.472-1.723-8.488c0-3.282,0.574-6.353,1.723-9.209c1.146-2.854,2.716-5.346,4.705-7.467
		c1.987-2.123,4.311-3.797,6.967-5.024c2.656-1.229,5.492-1.843,8.508-1.843c1.788,0,3.543,0.229,5.265,0.682
		c1.723,0.454,3.363,1.114,4.926,1.98c1.562,0.868,3.003,1.93,4.323,3.185C618.206,378.901,619.347,380.343,620.308,381.971z"/>
	<path fill="#FFFFFF" d="M636.563,416.324h-10.932v-59.938h10.932v18.938c1.308-0.987,2.655-1.688,4.044-2.103
		c1.388-0.414,2.803-0.621,4.243-0.621c2.644,0,5.125,0.5,7.447,1.503c2.322,1,4.344,2.376,6.066,4.122
		c1.721,1.749,3.082,3.791,4.084,6.128c1,2.336,1.501,4.823,1.501,7.467v24.504h-11.011V391.82h0.079
		c0-1.121-0.214-2.183-0.641-3.185c-0.428-1-1.015-1.874-1.762-2.622c-0.748-0.747-1.615-1.334-2.604-1.762
		c-0.986-0.427-2.042-0.641-3.163-0.641c-1.147,0-2.229,0.214-3.242,0.641c-1.016,0.428-1.896,1.015-2.644,1.762
		c-0.748,0.748-1.335,1.622-1.762,2.622c-0.427,1.002-0.642,2.063-0.642,3.185v24.504H636.563z"/>
	<path fill="#FFFFFF" d="M726.251,416.324H715.36v-27.228c0-0.747-0.141-1.454-0.422-2.122c-0.278-0.667-0.674-1.254-1.181-1.762
		c-0.507-0.507-1.095-0.9-1.762-1.181c-0.667-0.281-1.375-0.421-2.122-0.421c-0.748,0-1.448,0.14-2.103,0.421
		c-0.653,0.278-1.229,0.674-1.723,1.181c-0.494,0.508-0.881,1.095-1.16,1.762c-0.28,0.668-0.421,1.375-0.421,2.122v27.228h-10.931
		v-27.228c0-0.747-0.142-1.454-0.42-2.122c-0.281-0.667-0.675-1.254-1.183-1.762c-0.508-0.507-1.095-0.9-1.762-1.181
		c-0.668-0.281-1.375-0.421-2.122-0.421s-1.448,0.14-2.103,0.421c-0.654,0.278-1.229,0.674-1.722,1.181
		c-0.494,0.508-0.881,1.095-1.162,1.762c-0.278,0.668-0.42,1.375-0.42,2.122v27.228h-10.931v-42.882h2.643l2.964,3.282
		c1.521-1.28,3.195-2.274,5.023-2.982c1.828-0.706,3.73-1.062,5.706-1.062c2.002,0,3.957,0.374,5.866,1.121
		c1.908,0.748,3.583,2.042,5.023,3.884c0.667-0.906,1.429-1.682,2.282-2.321c0.854-0.642,1.755-1.161,2.703-1.563
		c0.947-0.399,1.928-0.687,2.942-0.86s2.015-0.261,3.003-0.261c2.269,0,4.396,0.429,6.387,1.281
		c1.988,0.854,3.723,2.021,5.205,3.504c1.48,1.48,2.648,3.224,3.503,5.226c0.855,2.002,1.281,4.138,1.281,6.405v27.228H726.251z"/>
	<path fill="#FFFFFF" d="M775.739,416.324h-2.644l-4.244-5.886c-1.041,0.935-2.142,1.809-3.304,2.621
		c-1.16,0.815-2.382,1.521-3.663,2.123c-1.281,0.601-2.597,1.074-3.943,1.421c-1.348,0.348-2.717,0.521-4.104,0.521
		c-3.017,0-5.853-0.508-8.508-1.521c-2.656-1.014-4.979-2.487-6.967-4.424c-1.989-1.936-3.559-4.305-4.705-7.106
		c-1.148-2.804-1.723-5.992-1.723-9.569c0-3.336,0.573-6.398,1.723-9.188c1.146-2.789,2.716-5.187,4.705-7.188
		c1.987-2.002,4.311-3.557,6.967-4.664c2.655-1.106,5.491-1.662,8.508-1.662c1.388,0,2.763,0.174,4.124,0.521
		s2.683,0.828,3.964,1.44c1.281,0.614,2.502,1.335,3.664,2.162c1.16,0.828,2.248,1.723,3.263,2.684l4.244-5.085h2.644V416.324z
		 M764.729,394.503c0-1.494-0.287-2.942-0.861-4.345c-0.574-1.4-1.354-2.644-2.342-3.724c-0.988-1.082-2.144-1.947-3.463-2.604
		c-1.322-0.653-2.73-0.98-4.226-0.98s-2.901,0.255-4.225,0.762c-1.32,0.508-2.47,1.255-3.443,2.241
		c-0.975,0.988-1.741,2.209-2.302,3.663c-0.562,1.456-0.841,3.117-0.841,4.985c0,1.869,0.279,3.53,0.841,4.985
		c0.561,1.455,1.327,2.676,2.302,3.663c0.976,0.987,2.123,1.734,3.443,2.241c1.321,0.509,2.729,0.762,4.225,0.762
		c1.494,0,2.902-0.326,4.226-0.98c1.319-0.654,2.475-1.521,3.463-2.604c0.986-1.08,1.768-2.322,2.342-3.724
		C764.441,397.445,764.729,395.998,764.729,394.503z"/>
	<path fill="#FFFFFF" d="M794.998,416.324h-10.931v-42.882h2.643l3.604,5.085c1.762-1.603,3.764-2.836,6.006-3.703
		c2.241-0.867,4.563-1.302,6.967-1.302h9.649v10.891h-9.649c-1.147,0-2.229,0.214-3.243,0.641c-1.015,0.429-1.896,1.016-2.643,1.763
		c-0.748,0.748-1.335,1.629-1.763,2.643c-0.428,1.015-0.641,2.096-0.641,3.243V416.324z"/>
	<path fill="#FFFFFF" d="M829.031,416.324h-11.011v-59.938h11.011v37.797l16.296-20.659h12.572l-14.215,17.856l14.215,24.944
		h-12.572l-8.688-15.575l-7.606,10.09L829.031,416.324L829.031,416.324z"/>
</g>
<circle fill="#078944" cx="497.266" cy="433.469" r="10.352"/>
<circle fill="#078944" cx="427.344" cy="459.641" r="10.352"/>
<circle fill="#078944" cx="399.219" cy="402.414" r="10.352"/>
<circle fill="#078944" cx="399.219" cy="350.711" r="10.352"/>
<rect x="513" y="427.805" fill="none" width="382" height="21.484"/>
<g enable-background="new    ">
	<path fill="#FFFFFF" d="M519.819,441.692h-2.653v-10.642h-3.999v-2.663h10.641v2.663h-3.988V441.692L519.819,441.692z"/>
	<path fill="#FFFFFF" d="M527.343,439.262c0.1,0.031,0.198,0.051,0.297,0.062c0.1,0.009,0.198,0.014,0.297,0.014
		c0.247,0,0.485-0.034,0.715-0.103c0.229-0.067,0.443-0.165,0.645-0.292c0.201-0.126,0.38-0.281,0.538-0.464
		c0.157-0.183,0.286-0.386,0.385-0.607l1.855,1.865c-0.235,0.334-0.506,0.634-0.813,0.898c-0.307,0.267-0.637,0.491-0.993,0.678
		c-0.354,0.186-0.729,0.326-1.121,0.423c-0.394,0.096-0.798,0.144-1.211,0.144c-0.699,0-1.356-0.13-1.973-0.39
		c-0.615-0.261-1.152-0.622-1.614-1.085c-0.46-0.465-0.823-1.018-1.09-1.656c-0.266-0.641-0.398-1.344-0.398-2.111
		c0-0.785,0.133-1.502,0.398-2.151c0.267-0.648,0.629-1.202,1.09-1.66c0.462-0.458,0.999-0.813,1.614-1.066
		c0.616-0.254,1.272-0.381,1.973-0.381c0.413,0,0.818,0.05,1.215,0.148c0.396,0.099,0.771,0.24,1.127,0.427
		c0.354,0.186,0.688,0.413,0.997,0.682c0.309,0.271,0.581,0.571,0.815,0.905L527.343,439.262z M528.642,434.038
		c-0.117-0.043-0.232-0.07-0.348-0.083s-0.234-0.02-0.357-0.02c-0.347,0-0.673,0.063-0.979,0.19
		c-0.307,0.127-0.572,0.308-0.798,0.542c-0.227,0.235-0.404,0.519-0.534,0.85s-0.195,0.703-0.195,1.117
		c0,0.094,0.006,0.198,0.015,0.316c0.01,0.117,0.024,0.235,0.047,0.355c0.021,0.121,0.047,0.237,0.079,0.35
		c0.03,0.11,0.07,0.21,0.121,0.297L528.642,434.038z"/>
	<path fill="#FFFFFF" d="M541.973,433.732l-1.854,1.863c-0.093-0.26-0.22-0.492-0.38-0.699c-0.161-0.207-0.342-0.383-0.542-0.524
		c-0.201-0.142-0.419-0.25-0.654-0.324s-0.477-0.11-0.724-0.11c-0.348,0-0.673,0.07-0.979,0.213s-0.572,0.343-0.798,0.599
		c-0.226,0.257-0.404,0.562-0.534,0.914c-0.13,0.352-0.194,0.742-0.194,1.169c0,0.347,0.064,0.671,0.194,0.975
		s0.309,0.568,0.534,0.798c0.226,0.229,0.491,0.407,0.798,0.538c0.307,0.13,0.632,0.194,0.979,0.194
		c0.247,0,0.484-0.034,0.714-0.103c0.229-0.067,0.443-0.165,0.645-0.292c0.201-0.126,0.38-0.281,0.538-0.464
		c0.157-0.183,0.286-0.386,0.386-0.607l1.854,1.865c-0.235,0.334-0.506,0.634-0.812,0.898c-0.308,0.267-0.638,0.491-0.993,0.678
		c-0.355,0.186-0.729,0.326-1.122,0.423c-0.394,0.096-0.797,0.144-1.211,0.144c-0.699,0-1.356-0.132-1.973-0.395
		c-0.614-0.264-1.152-0.623-1.613-1.08c-0.46-0.458-0.824-0.993-1.091-1.605c-0.266-0.611-0.398-1.268-0.398-1.967
		c0-0.761,0.133-1.472,0.398-2.134c0.267-0.662,0.63-1.238,1.091-1.73c0.461-0.491,0.999-0.88,1.613-1.164
		c0.616-0.283,1.272-0.427,1.973-0.427c0.414,0,0.82,0.053,1.22,0.158c0.399,0.104,0.779,0.258,1.142,0.459
		c0.361,0.201,0.695,0.446,1.002,0.737C541.486,433.021,541.75,433.355,541.973,433.732z"/>
	<path fill="#FFFFFF" d="M545.74,441.692h-2.533v-13.89h2.533v4.39c0.303-0.229,0.614-0.392,0.937-0.487
		c0.321-0.096,0.649-0.145,0.983-0.145c0.612,0,1.188,0.116,1.726,0.349c0.538,0.231,1.007,0.551,1.405,0.956
		c0.399,0.404,0.715,0.878,0.946,1.419c0.231,0.542,0.348,1.118,0.348,1.729v5.679h-2.551v-5.679h0.019
		c0-0.26-0.05-0.506-0.147-0.736c-0.1-0.232-0.235-0.436-0.408-0.608s-0.375-0.309-0.604-0.408
		c-0.229-0.099-0.473-0.147-0.732-0.147c-0.267,0-0.518,0.05-0.751,0.147c-0.235,0.101-0.439,0.235-0.612,0.408
		c-0.173,0.174-0.31,0.376-0.408,0.608c-0.099,0.23-0.147,0.478-0.147,0.736v5.679H545.74z"/>
	<path fill="#FFFFFF" d="M563.153,439.262c0.099,0.031,0.197,0.051,0.297,0.062c0.099,0.009,0.198,0.014,0.297,0.014
		c0.247,0,0.485-0.034,0.714-0.103c0.229-0.067,0.444-0.165,0.646-0.292c0.2-0.126,0.38-0.281,0.537-0.464s0.286-0.386,0.386-0.607
		l1.854,1.865c-0.234,0.334-0.506,0.634-0.812,0.898c-0.308,0.267-0.638,0.491-0.993,0.678c-0.355,0.186-0.729,0.326-1.122,0.423
		c-0.393,0.096-0.797,0.144-1.211,0.144c-0.699,0-1.356-0.13-1.972-0.39c-0.615-0.261-1.153-0.622-1.614-1.085
		c-0.46-0.465-0.824-1.018-1.09-1.656c-0.267-0.641-0.399-1.344-0.399-2.111c0-0.785,0.133-1.502,0.399-2.151
		c0.266-0.648,0.629-1.202,1.09-1.66s0.999-0.813,1.614-1.066c0.615-0.254,1.271-0.381,1.972-0.381c0.414,0,0.819,0.05,1.215,0.148
		c0.396,0.099,0.771,0.24,1.127,0.427c0.355,0.186,0.688,0.413,0.997,0.682c0.31,0.271,0.581,0.571,0.816,0.905L563.153,439.262z
		 M564.452,434.038c-0.118-0.043-0.233-0.07-0.348-0.083c-0.115-0.013-0.234-0.02-0.357-0.02c-0.347,0-0.673,0.063-0.979,0.19
		s-0.571,0.308-0.798,0.542c-0.226,0.235-0.403,0.519-0.533,0.85c-0.131,0.331-0.195,0.703-0.195,1.117
		c0,0.094,0.005,0.198,0.014,0.316c0.01,0.117,0.025,0.235,0.047,0.355c0.021,0.121,0.047,0.237,0.079,0.35
		c0.031,0.11,0.071,0.21,0.121,0.297L564.452,434.038z"/>
	<path fill="#FFFFFF" d="M571.865,441.692l-3.785-9.937h2.885l2.171,6.197l2.162-6.197h2.896l-3.785,9.937H571.865z"/>
	<path fill="#FFFFFF" d="M582.821,439.262c0.099,0.031,0.197,0.051,0.297,0.062c0.099,0.009,0.198,0.014,0.297,0.014
		c0.247,0,0.485-0.034,0.714-0.103c0.229-0.067,0.444-0.165,0.646-0.292c0.2-0.126,0.38-0.281,0.537-0.464s0.286-0.386,0.386-0.607
		l1.854,1.865c-0.234,0.334-0.506,0.634-0.812,0.898c-0.308,0.267-0.638,0.491-0.993,0.678c-0.355,0.186-0.729,0.326-1.122,0.423
		c-0.393,0.096-0.797,0.144-1.211,0.144c-0.699,0-1.356-0.13-1.972-0.39c-0.615-0.261-1.153-0.622-1.614-1.085
		c-0.46-0.465-0.824-1.018-1.09-1.656c-0.267-0.641-0.399-1.344-0.399-2.111c0-0.785,0.133-1.502,0.399-2.151
		c0.266-0.648,0.629-1.202,1.09-1.66s0.999-0.813,1.614-1.066c0.615-0.254,1.271-0.381,1.972-0.381c0.414,0,0.819,0.05,1.215,0.148
		c0.396,0.099,0.771,0.24,1.127,0.427c0.355,0.186,0.688,0.413,0.997,0.682c0.31,0.271,0.581,0.571,0.816,0.905L582.821,439.262z
		 M584.12,434.038c-0.118-0.043-0.233-0.07-0.348-0.083c-0.115-0.013-0.234-0.02-0.357-0.02c-0.347,0-0.673,0.063-0.979,0.19
		s-0.571,0.308-0.798,0.542c-0.226,0.235-0.403,0.519-0.533,0.85c-0.131,0.331-0.195,0.703-0.195,1.117
		c0,0.094,0.005,0.198,0.014,0.316c0.01,0.117,0.025,0.235,0.047,0.355c0.021,0.121,0.047,0.237,0.079,0.35
		c0.031,0.11,0.071,0.21,0.121,0.297L584.12,434.038z"/>
	<path fill="#FFFFFF" d="M591.375,441.692h-2.533v-9.937h0.612l0.835,0.965c0.408-0.371,0.871-0.656,1.387-0.857
		c0.518-0.201,1.057-0.303,1.619-0.303c0.606,0,1.178,0.116,1.716,0.349c0.538,0.231,1.008,0.551,1.41,0.956
		c0.402,0.404,0.719,0.878,0.951,1.419c0.232,0.542,0.348,1.118,0.348,1.729v5.679h-2.533v-5.679c0-0.26-0.05-0.506-0.147-0.736
		c-0.099-0.232-0.235-0.436-0.408-0.608s-0.375-0.309-0.603-0.408c-0.229-0.099-0.474-0.147-0.733-0.147
		c-0.266,0-0.517,0.05-0.751,0.147c-0.235,0.101-0.439,0.235-0.612,0.408c-0.173,0.174-0.31,0.376-0.407,0.608
		c-0.1,0.23-0.148,0.478-0.148,0.736L591.375,441.692L591.375,441.692z"/>
	<path fill="#FFFFFF" d="M604.373,441.692c-0.612,0-1.188-0.116-1.726-0.349c-0.538-0.231-1.011-0.551-1.415-0.956
		c-0.405-0.403-0.725-0.876-0.956-1.415c-0.231-0.537-0.349-1.112-0.349-1.725v-2.951h-1.233v-2.522h1.233v-3.972h2.523v3.972h3.841
		v2.522h-3.841v2.951c0,0.266,0.049,0.515,0.147,0.746c0.1,0.231,0.235,0.435,0.408,0.606c0.173,0.175,0.377,0.313,0.612,0.413
		c0.235,0.104,0.485,0.153,0.751,0.153h1.92v2.523h-1.917V441.692z"/>
	<path fill="#FFFFFF" d="M613.167,441.692h-5.789v-2.523h5.789c0.173,0,0.321-0.062,0.445-0.186s0.186-0.272,0.186-0.445
		c0-0.18-0.062-0.297-0.186-0.354c-0.124-0.056-0.272-0.083-0.445-0.083h-2.635c-0.439,0-0.852-0.084-1.234-0.251
		c-0.384-0.167-0.718-0.395-1.002-0.682c-0.285-0.288-0.509-0.623-0.672-1.007c-0.164-0.384-0.246-0.795-0.246-1.234
		c0-0.438,0.082-0.85,0.246-1.232c0.164-0.385,0.388-0.719,0.672-1.002c0.284-0.284,0.618-0.51,1.002-0.674
		c0.383-0.162,0.794-0.246,1.234-0.246h5.13v2.523h-5.13c-0.173,0-0.322,0.063-0.445,0.187c-0.124,0.124-0.186,0.271-0.186,0.444
		c0,0.181,0.062,0.333,0.186,0.46s0.272,0.19,0.445,0.19h2.635c0.433,0,0.841,0.072,1.225,0.218
		c0.384,0.146,0.718,0.348,1.002,0.607s0.511,0.571,0.678,0.937s0.25,0.765,0.25,1.197c0,0.438-0.083,0.849-0.25,1.229
		s-0.394,0.714-0.678,1.002c-0.284,0.287-0.618,0.515-1.002,0.678C614.008,441.61,613.6,441.692,613.167,441.692z"/>
	<path fill="#FFFFFF" d="M625.97,429.057c0,0.235-0.045,0.454-0.135,0.659c-0.089,0.203-0.212,0.382-0.366,0.533
		c-0.155,0.151-0.335,0.272-0.543,0.361c-0.207,0.09-0.428,0.135-0.663,0.135c-0.234,0-0.456-0.045-0.663-0.135
		c-0.208-0.089-0.387-0.21-0.538-0.361s-0.271-0.33-0.361-0.533c-0.09-0.205-0.135-0.424-0.135-0.659
		c0-0.229,0.045-0.445,0.135-0.653c0.09-0.207,0.21-0.387,0.361-0.538s0.331-0.271,0.538-0.361s0.429-0.135,0.663-0.135
		c0.235,0,0.456,0.045,0.663,0.135c0.208,0.09,0.388,0.21,0.543,0.361c0.154,0.151,0.277,0.331,0.366,0.538
		C625.925,428.61,625.97,428.828,625.97,429.057z M625.534,441.692h-2.551v-9.937h2.551V441.692z"/>
	<path fill="#FFFFFF" d="M629.997,441.692h-2.533v-9.937h0.612l0.835,0.965c0.408-0.371,0.871-0.656,1.387-0.857
		c0.518-0.201,1.057-0.303,1.619-0.303c0.606,0,1.178,0.116,1.716,0.349c0.538,0.231,1.008,0.551,1.41,0.956
		c0.402,0.404,0.719,0.878,0.951,1.419c0.231,0.542,0.348,1.118,0.348,1.729v5.679h-2.533v-5.679c0-0.26-0.05-0.506-0.147-0.736
		c-0.1-0.232-0.235-0.436-0.408-0.608s-0.375-0.309-0.603-0.408c-0.229-0.099-0.474-0.147-0.733-0.147
		c-0.266,0-0.517,0.05-0.751,0.147c-0.235,0.101-0.439,0.235-0.612,0.408c-0.173,0.174-0.31,0.376-0.408,0.608
		c-0.099,0.23-0.147,0.478-0.147,0.736L629.997,441.692L629.997,441.692z"/>
	<path fill="#FFFFFF" d="M654.35,440.329c-0.618,0.531-1.312,0.938-2.077,1.225c-0.769,0.284-1.563,0.427-2.386,0.427
		c-0.631,0-1.237-0.082-1.821-0.245c-0.586-0.164-1.133-0.396-1.644-0.696c-0.51-0.3-0.976-0.66-1.396-1.08
		c-0.42-0.421-0.78-0.887-1.08-1.396c-0.302-0.512-0.532-1.059-0.696-1.644c-0.163-0.584-0.245-1.191-0.245-1.822
		s0.082-1.239,0.245-1.828c0.164-0.588,0.396-1.137,0.696-1.646c0.3-0.511,0.659-0.976,1.08-1.396
		c0.421-0.422,0.887-0.78,1.396-1.081c0.511-0.301,1.058-0.531,1.644-0.695c0.584-0.164,1.19-0.246,1.821-0.246
		c0.822,0,1.617,0.141,2.386,0.422c0.767,0.282,1.459,0.691,2.077,1.229l-1.409,2.318c-0.391-0.421-0.852-0.743-1.384-0.97
		c-0.53-0.226-1.088-0.338-1.67-0.338c-0.588,0-1.138,0.11-1.649,0.334c-0.515,0.223-0.963,0.522-1.347,0.904
		c-0.384,0.38-0.687,0.828-0.908,1.345c-0.224,0.517-0.334,1.064-0.334,1.646c0,0.581,0.11,1.127,0.334,1.638
		c0.223,0.511,0.524,0.957,0.908,1.341s0.832,0.687,1.347,0.909c0.513,0.223,1.063,0.334,1.649,0.334c0.582,0,1.14-0.112,1.67-0.339
		c0.532-0.227,0.993-0.55,1.384-0.971L654.35,440.329z"/>
	<path fill="#FFFFFF" d="M664.879,436.636c0,0.742-0.133,1.435-0.397,2.074c-0.267,0.64-0.629,1.193-1.086,1.66
		c-0.457,0.468-0.994,0.835-1.609,1.104c-0.615,0.27-1.275,0.403-1.98,0.403c-0.698,0-1.354-0.135-1.972-0.403
		c-0.615-0.27-1.153-0.637-1.614-1.104s-0.823-1.021-1.09-1.66c-0.266-0.641-0.397-1.332-0.397-2.074
		c0-0.754,0.133-1.453,0.397-2.096c0.266-0.645,0.629-1.198,1.09-1.666c0.461-0.467,0.999-0.833,1.614-1.1
		c0.616-0.267,1.272-0.398,1.972-0.398c0.705,0,1.365,0.125,1.98,0.376c0.615,0.25,1.152,0.606,1.609,1.066
		c0.457,0.461,0.819,1.015,1.086,1.66C664.747,435.125,664.879,435.845,664.879,436.636z M662.328,436.636
		c0-0.408-0.066-0.776-0.199-1.107c-0.133-0.33-0.313-0.615-0.543-0.854c-0.229-0.237-0.496-0.42-0.803-0.547
		s-0.633-0.19-0.979-0.19s-0.673,0.063-0.979,0.19c-0.308,0.127-0.572,0.31-0.798,0.547c-0.227,0.238-0.403,0.523-0.534,0.854
		c-0.129,0.331-0.194,0.699-0.194,1.107c0,0.384,0.065,0.739,0.194,1.067c0.131,0.328,0.309,0.612,0.534,0.854
		c0.225,0.242,0.491,0.433,0.798,0.57c0.306,0.14,0.632,0.209,0.979,0.209s0.673-0.064,0.979-0.194
		c0.307-0.131,0.574-0.313,0.803-0.548c0.229-0.234,0.41-0.52,0.543-0.854S662.328,437.038,662.328,436.636z"/>
	<path fill="#FFFFFF" d="M668.832,445.478h-2.552v-13.721h0.611l1.013,1.196c0.229-0.217,0.479-0.421,0.751-0.612
		c0.271-0.19,0.556-0.356,0.849-0.496c0.294-0.14,0.599-0.249,0.914-0.33c0.315-0.08,0.634-0.12,0.955-0.12
		c0.699,0,1.356,0.125,1.972,0.377c0.616,0.25,1.153,0.604,1.614,1.063c0.461,0.457,0.824,1.01,1.09,1.655
		c0.267,0.646,0.399,1.361,0.399,2.146c0,0.816-0.134,1.553-0.399,2.204c-0.265,0.652-0.629,1.206-1.09,1.66
		c-0.461,0.455-0.998,0.803-1.614,1.044c-0.615,0.241-1.271,0.361-1.972,0.361c-0.223,0-0.443-0.024-0.663-0.074
		c-0.22-0.049-0.436-0.115-0.649-0.199c-0.213-0.083-0.424-0.178-0.631-0.283c-0.207-0.104-0.405-0.213-0.598-0.323V445.478z
		 M673.906,436.636c0-0.42-0.066-0.797-0.199-1.131s-0.314-0.617-0.543-0.85c-0.229-0.231-0.498-0.409-0.807-0.533
		c-0.312-0.124-0.639-0.187-0.984-0.187s-0.672,0.063-0.979,0.187c-0.306,0.124-0.573,0.302-0.803,0.533
		c-0.229,0.231-0.409,0.516-0.542,0.85c-0.134,0.334-0.2,0.711-0.2,1.131c0,0.402,0.066,0.771,0.2,1.104
		c0.133,0.334,0.313,0.618,0.542,0.854c0.229,0.236,0.497,0.417,0.803,0.548c0.308,0.13,0.634,0.194,0.979,0.194
		c0.347,0,0.674-0.064,0.984-0.194c0.309-0.131,0.577-0.313,0.807-0.548c0.229-0.234,0.41-0.52,0.543-0.854
		S673.906,437.038,673.906,436.636z"/>
	<path fill="#FFFFFF" d="M681.801,439.262c0.101,0.031,0.198,0.051,0.297,0.062c0.101,0.009,0.198,0.014,0.298,0.014
		c0.247,0,0.485-0.034,0.715-0.103c0.229-0.067,0.442-0.165,0.645-0.292c0.201-0.126,0.381-0.281,0.539-0.464
		c0.156-0.183,0.285-0.386,0.385-0.607l1.855,1.865c-0.236,0.334-0.506,0.634-0.813,0.898c-0.307,0.266-0.637,0.491-0.991,0.678
		c-0.355,0.186-0.73,0.326-1.123,0.423c-0.394,0.096-0.797,0.144-1.211,0.144c-0.699,0-1.355-0.13-1.972-0.39
		c-0.616-0.261-1.153-0.622-1.614-1.085c-0.461-0.465-0.824-1.018-1.091-1.656c-0.266-0.641-0.397-1.344-0.397-2.111
		c0-0.785,0.133-1.502,0.397-2.151c0.267-0.648,0.63-1.202,1.091-1.66s1-0.813,1.614-1.066c0.615-0.254,1.271-0.381,1.972-0.381
		c0.414,0,0.819,0.05,1.216,0.148c0.396,0.098,0.771,0.24,1.128,0.427c0.354,0.186,0.688,0.413,0.996,0.682
		c0.31,0.271,0.582,0.571,0.815,0.905L681.801,439.262z M683.1,434.038c-0.116-0.043-0.231-0.07-0.348-0.083
		c-0.114-0.013-0.233-0.02-0.357-0.02c-0.346,0-0.672,0.063-0.979,0.19s-0.572,0.308-0.797,0.542
		c-0.228,0.235-0.404,0.519-0.534,0.85s-0.194,0.703-0.194,1.117c0,0.094,0.005,0.198,0.015,0.316
		c0.01,0.117,0.023,0.235,0.047,0.355c0.021,0.121,0.047,0.237,0.078,0.35c0.03,0.111,0.069,0.21,0.121,0.297L683.1,434.038z"/>
	<path fill="#FFFFFF" d="M690.354,441.692h-2.532v-9.937h0.611l0.835,0.965c0.408-0.371,0.871-0.656,1.388-0.857
		s1.057-0.303,1.619-0.303c0.604,0,1.178,0.116,1.717,0.349c0.537,0.231,1.008,0.551,1.41,0.956c0.4,0.404,0.719,0.878,0.949,1.419
		c0.232,0.542,0.35,1.118,0.35,1.729v5.679h-2.533v-5.679c0-0.26-0.05-0.506-0.148-0.736c-0.1-0.232-0.234-0.436-0.407-0.608
		c-0.175-0.173-0.375-0.309-0.604-0.408c-0.229-0.099-0.473-0.147-0.731-0.147c-0.267,0-0.518,0.05-0.752,0.147
		c-0.234,0.101-0.439,0.235-0.611,0.408c-0.174,0.174-0.312,0.376-0.408,0.608c-0.1,0.23-0.148,0.478-0.148,0.736v5.679H690.354z"/>
	<path fill="#FFFFFF" d="M701.033,441.692H698.5v-13.89h2.533v4.39c0.303-0.229,0.615-0.392,0.938-0.487
		c0.32-0.096,0.648-0.145,0.982-0.145c0.613,0,1.188,0.116,1.727,0.349c0.537,0.231,1.006,0.551,1.404,0.956
		c0.4,0.404,0.715,0.878,0.947,1.419c0.231,0.542,0.348,1.118,0.348,1.729v5.679h-2.551v-5.679h0.018
		c0-0.26-0.049-0.506-0.147-0.736c-0.1-0.232-0.234-0.436-0.408-0.608c-0.173-0.173-0.374-0.309-0.604-0.408
		c-0.229-0.099-0.474-0.147-0.732-0.147c-0.266,0-0.516,0.05-0.751,0.147c-0.235,0.101-0.439,0.235-0.612,0.408
		c-0.174,0.174-0.31,0.376-0.408,0.608c-0.1,0.23-0.147,0.478-0.147,0.736v5.679H701.033z"/>
	<path fill="#FFFFFF" d="M718.799,441.692h-0.61l-0.984-1.363c-0.24,0.216-0.496,0.419-0.766,0.606
		c-0.27,0.188-0.552,0.354-0.849,0.491c-0.297,0.141-0.602,0.249-0.914,0.329c-0.313,0.081-0.63,0.121-0.951,0.121
		c-0.698,0-1.354-0.117-1.972-0.353c-0.615-0.235-1.153-0.576-1.614-1.025c-0.461-0.448-0.823-0.997-1.09-1.646
		c-0.266-0.648-0.397-1.389-0.397-2.218c0-0.771,0.133-1.481,0.397-2.129c0.267-0.646,0.629-1.201,1.09-1.665
		s0.999-0.824,1.614-1.081c0.616-0.256,1.272-0.385,1.972-0.385c0.321,0,0.642,0.04,0.955,0.121c0.316,0.08,0.622,0.191,0.919,0.334
		c0.297,0.142,0.58,0.309,0.85,0.5c0.27,0.192,0.521,0.398,0.756,0.622l0.984-1.179h0.61V441.692z M716.248,436.636
		c0-0.346-0.066-0.682-0.199-1.006c-0.133-0.325-0.313-0.612-0.543-0.863c-0.229-0.25-0.496-0.45-0.803-0.603
		c-0.306-0.151-0.633-0.229-0.979-0.229s-0.673,0.06-0.979,0.177c-0.307,0.118-0.572,0.291-0.798,0.52
		c-0.227,0.229-0.403,0.513-0.534,0.851c-0.129,0.337-0.194,0.722-0.194,1.153c0,0.435,0.065,0.818,0.194,1.155
		c0.131,0.338,0.309,0.62,0.534,0.849c0.226,0.229,0.491,0.402,0.798,0.521c0.306,0.118,0.632,0.177,0.979,0.177
		s0.674-0.075,0.979-0.228c0.307-0.151,0.574-0.354,0.803-0.604c0.229-0.251,0.41-0.538,0.543-0.863
		C716.182,437.318,716.248,436.982,716.248,436.636z"/>
	<path fill="#FFFFFF" d="M730.35,440.44c0,0.697-0.133,1.354-0.397,1.967c-0.268,0.61-0.63,1.146-1.09,1.604
		c-0.461,0.458-1,0.819-1.615,1.085c-0.615,0.268-1.272,0.399-1.971,0.399l-1.271-0.02v-2.532l1.252,0.02
		c0.396,0,0.733-0.052,1.012-0.153c0.278-0.103,0.515-0.24,0.705-0.418c0.191-0.176,0.346-0.379,0.459-0.606
		c0.115-0.229,0.205-0.47,0.273-0.725c-0.099,0.161-0.24,0.292-0.426,0.396c-0.187,0.102-0.393,0.186-0.617,0.25
		c-0.228,0.064-0.461,0.11-0.705,0.135c-0.244,0.025-0.473,0.037-0.682,0.037c-0.699,0-1.356-0.121-1.974-0.361
		c-0.615-0.241-1.151-0.586-1.612-1.034c-0.462-0.448-0.824-0.997-1.091-1.646s-0.398-1.383-0.398-2.199
		c0-0.748,0.133-1.442,0.398-2.087c0.267-0.644,0.629-1.2,1.091-1.67c0.461-0.47,0.997-0.838,1.612-1.104
		c0.616-0.267,1.273-0.398,1.974-0.398c0.319,0,0.64,0.04,0.955,0.121c0.314,0.08,0.62,0.19,0.918,0.334
		c0.297,0.142,0.58,0.309,0.85,0.5c0.27,0.192,0.521,0.399,0.756,0.622l0.983-1.179h0.611V440.44L730.35,440.44z M727.799,436.636
		c0-0.346-0.065-0.682-0.199-1.006c-0.134-0.325-0.313-0.612-0.543-0.863c-0.229-0.25-0.495-0.45-0.803-0.603
		c-0.307-0.152-0.633-0.229-0.979-0.229c-0.349,0-0.675,0.06-0.979,0.177c-0.307,0.118-0.572,0.291-0.799,0.52
		c-0.227,0.229-0.403,0.513-0.533,0.851c-0.13,0.337-0.195,0.722-0.195,1.153c0,0.415,0.065,0.788,0.195,1.118
		c0.13,0.331,0.309,0.614,0.533,0.849c0.227,0.235,0.492,0.417,0.799,0.543c0.305,0.128,0.631,0.19,0.979,0.19
		c0.346,0,0.672-0.075,0.979-0.228c0.308-0.151,0.573-0.354,0.803-0.604c0.229-0.251,0.409-0.538,0.543-0.863
		C727.732,437.318,727.799,436.982,727.799,436.636z"/>
	<path fill="#FFFFFF" d="M736.231,439.262c0.099,0.031,0.197,0.051,0.297,0.062c0.099,0.009,0.197,0.014,0.297,0.014
		c0.247,0,0.484-0.034,0.714-0.103c0.229-0.067,0.444-0.165,0.646-0.292c0.2-0.126,0.381-0.281,0.538-0.464s0.285-0.386,0.386-0.607
		l1.854,1.865c-0.235,0.334-0.506,0.634-0.812,0.898c-0.308,0.267-0.639,0.491-0.993,0.678c-0.355,0.186-0.729,0.326-1.122,0.423
		c-0.395,0.096-0.797,0.144-1.211,0.144c-0.699,0-1.356-0.13-1.973-0.39c-0.615-0.261-1.152-0.622-1.613-1.085
		c-0.46-0.465-0.824-1.018-1.09-1.656c-0.268-0.641-0.399-1.344-0.399-2.111c0-0.785,0.133-1.502,0.399-2.151
		c0.266-0.648,0.63-1.202,1.09-1.66c0.461-0.458,0.999-0.813,1.613-1.066c0.615-0.254,1.272-0.381,1.973-0.381
		c0.414,0,0.818,0.05,1.216,0.148c0.396,0.099,0.771,0.24,1.127,0.427c0.356,0.186,0.688,0.413,0.997,0.682
		c0.31,0.271,0.581,0.571,0.816,0.905L736.231,439.262z M737.53,434.038c-0.118-0.043-0.233-0.07-0.349-0.083
		c-0.114-0.013-0.232-0.02-0.356-0.02c-0.348,0-0.673,0.063-0.979,0.19s-0.571,0.308-0.798,0.542
		c-0.227,0.235-0.404,0.519-0.533,0.85c-0.131,0.331-0.194,0.703-0.194,1.117c0,0.094,0.005,0.198,0.014,0.316
		c0.01,0.117,0.025,0.235,0.047,0.355c0.021,0.121,0.047,0.237,0.078,0.35c0.031,0.111,0.071,0.21,0.121,0.297L737.53,434.038z"/>
	<path fill="#FFFFFF" d="M744.785,441.692h-2.533v-9.937h0.613l0.834,0.965c0.407-0.371,0.871-0.656,1.387-0.857
		c0.518-0.201,1.057-0.303,1.619-0.303c0.605,0,1.179,0.116,1.717,0.349c0.538,0.231,1.008,0.551,1.41,0.956
		c0.401,0.404,0.719,0.878,0.951,1.419c0.231,0.542,0.348,1.118,0.348,1.729v5.679h-2.533v-5.679c0-0.26-0.049-0.506-0.147-0.736
		c-0.1-0.232-0.234-0.436-0.408-0.608c-0.173-0.173-0.374-0.309-0.604-0.408c-0.229-0.099-0.474-0.147-0.732-0.147
		c-0.267,0-0.517,0.05-0.751,0.147c-0.235,0.101-0.439,0.235-0.612,0.408c-0.174,0.174-0.31,0.376-0.408,0.608
		c-0.1,0.23-0.147,0.478-0.147,0.736v5.679H744.785z"/>
</g>
</svg>
