<?xml version="1.0" encoding="utf-8"?>
<!-- Generator: Adobe Illustrator 16.0.0, SVG Export Plug-In . SVG Version: 6.00 Build 0)  -->
<!DOCTYPE svg PUBLIC "-//W3C//DTD SVG 1.1//EN" "http://www.w3.org/Graphics/SVG/1.1/DTD/svg11.dtd">
<svg version="1.1" id="Layer_1" xmlns="http://www.w3.org/2000/svg" xmlns:xlink="http://www.w3.org/1999/xlink" x="0px" y="0px"
	 width="519.635px" height="156.167px" viewBox="0 0 519.635 156.167" enable-background="new 0 0 519.635 156.167"
	 xml:space="preserve">
<circle fill="#078944" cx="88.112" cy="65.458" r="15.039"/>
<circle fill="#078944" cx="88.112" cy="18.442" r="10.352"/>
<circle fill="#013E25" stroke="#231F20" stroke-miterlimit="10" cx="121.901" cy="111.551" r="5.664"/>
<circle fill="#013E25" stroke="#231F20" stroke-miterlimit="10" cx="51.979" cy="137.723" r="5.664"/>
<circle fill="#013E25" stroke="#231F20" stroke-miterlimit="10" cx="23.854" cy="80.497" r="5.664"/>
<circle fill="#013E25" stroke="#231F20" stroke-miterlimit="10" cx="23.854" cy="28.794" r="5.664"/>
<line fill="none" stroke="#078944" stroke-width="4" stroke-miterlimit="10" x1="88.112" y1="17.466" x2="88.112" y2="66.435"/>
<line fill="none" stroke="#078944" stroke-width="4" stroke-miterlimit="10" x1="88.112" y1="66.435" x2="121.901" y2="111.551"/>
<line fill="none" stroke="#078944" stroke-width="4" stroke-miterlimit="10" x1="88.112" y1="66.435" x2="51.979" y2="137.723"/>
<line fill="none" stroke="#078944" stroke-width="4" stroke-miterlimit="10" x1="88.112" y1="66.435" x2="23.854" y2="80.498"/>
<line fill="none" stroke="#078944" stroke-width="4" stroke-miterlimit="10" x1="23.854" y1="80.498" x2="23.854" y2="28.794"/>
<rect x="119.901" y="34.47" fill="none" width="564.402" height="71.355"/>
<g enable-background="new    ">
	<path fill="#FFFFFF" d="M149.331,94.407h-11.451V48.483h-17.258V36.991h45.926v11.492h-17.217V94.407L149.331,94.407z"/>
	<path fill="#FFFFFF" d="M181.801,83.917c0.428,0.135,0.855,0.221,1.281,0.26c0.428,0.041,0.854,0.063,1.281,0.063
		c1.066,0,2.096-0.146,3.084-0.439c0.984-0.293,1.912-0.715,2.781-1.262c0.867-0.547,1.643-1.215,2.322-2.002
		c0.678-0.787,1.234-1.662,1.662-2.624l8.008,8.049c-1.016,1.44-2.182,2.735-3.504,3.882c-1.32,1.148-2.75,2.123-4.283,2.924
		c-1.535,0.803-3.148,1.408-4.846,1.82c-1.695,0.414-3.438,0.621-5.225,0.621c-3.018,0-5.854-0.561-8.51-1.682
		c-2.654-1.121-4.979-2.684-6.967-4.686s-3.557-4.384-4.705-7.146c-1.146-2.764-1.721-5.797-1.721-9.108
		c0-3.391,0.574-6.486,1.721-9.289c1.148-2.803,2.717-5.189,4.705-7.168c1.988-1.975,4.313-3.51,6.967-4.604
		c2.656-1.096,5.492-1.643,8.51-1.643c1.789,0,3.537,0.213,5.244,0.643c1.709,0.428,3.33,1.041,4.865,1.842s2.969,1.781,4.305,2.943
		c1.334,1.158,2.51,2.461,3.521,3.9L181.801,83.917z M187.407,61.376c-0.508-0.188-1.008-0.307-1.5-0.361
		c-0.494-0.053-1.01-0.08-1.543-0.08c-1.494,0-2.902,0.275-4.225,0.82c-1.32,0.549-2.469,1.33-3.441,2.344
		c-0.977,1.016-1.742,2.236-2.303,3.662c-0.561,1.432-0.842,3.037-0.842,4.826c0,0.4,0.021,0.854,0.061,1.361
		s0.105,1.02,0.199,1.541c0.096,0.52,0.207,1.021,0.342,1.502c0.133,0.479,0.307,0.908,0.521,1.281L187.407,61.376z"/>
	<path fill="#FFFFFF" d="M244.944,60.054l-8.008,8.049c-0.398-1.119-0.949-2.129-1.643-3.021c-0.693-0.896-1.477-1.648-2.342-2.262
		c-0.867-0.613-1.811-1.082-2.822-1.402c-1.018-0.32-2.059-0.48-3.123-0.48c-1.496,0-2.904,0.311-4.225,0.924
		c-1.32,0.611-2.471,1.475-3.443,2.582c-0.977,1.105-1.742,2.422-2.301,3.941c-0.563,1.521-0.844,3.203-0.844,5.045
		c0,1.496,0.281,2.896,0.844,4.205c0.561,1.311,1.328,2.456,2.301,3.444c0.975,0.988,2.123,1.762,3.443,2.322
		c1.32,0.559,2.729,0.84,4.225,0.84c1.064,0,2.094-0.146,3.082-0.439s1.916-0.715,2.783-1.262s1.643-1.215,2.32-2.002
		c0.682-0.787,1.234-1.662,1.662-2.624l8.008,8.049c-1.014,1.44-2.182,2.735-3.502,3.882c-1.32,1.148-2.75,2.123-4.283,2.924
		c-1.535,0.803-3.15,1.408-4.846,1.82c-1.693,0.414-3.438,0.621-5.225,0.621c-3.018,0-5.854-0.566-8.508-1.701
		c-2.656-1.135-4.98-2.688-6.967-4.664c-1.99-1.975-3.559-4.284-4.705-6.927c-1.148-2.643-1.725-5.471-1.725-8.489
		c0-3.281,0.574-6.352,1.725-9.209c1.145-2.854,2.715-5.346,4.705-7.467c1.986-2.123,4.311-3.797,6.967-5.023
		c2.654-1.229,5.492-1.844,8.508-1.844c1.787,0,3.543,0.23,5.264,0.684c1.725,0.453,3.363,1.113,4.928,1.979
		c1.561,0.869,3.002,1.932,4.322,3.186C242.842,56.985,243.983,58.427,244.944,60.054z"/>
	<path fill="#FFFFFF" d="M261.2,94.407h-10.934V34.47H261.2v18.938c1.307-0.986,2.654-1.688,4.043-2.104
		c1.389-0.414,2.803-0.621,4.242-0.621c2.645,0,5.125,0.5,7.447,1.504c2.322,1,4.344,2.375,6.066,4.121
		c1.721,1.75,3.082,3.791,4.084,6.129c1,2.336,1.502,4.822,1.502,7.467v24.503h-11.012V69.903h0.078
		c0-1.121-0.213-2.184-0.641-3.186c-0.428-1-1.014-1.873-1.762-2.621s-1.615-1.334-2.604-1.762
		c-0.986-0.428-2.043-0.641-3.164-0.641c-1.146,0-2.229,0.213-3.242,0.641c-1.016,0.428-1.895,1.014-2.643,1.762
		s-1.336,1.621-1.762,2.621c-0.428,1.002-0.643,2.064-0.643,3.186v24.503H261.2z"/>
	<path fill="#FFFFFF" d="M350.887,94.407h-10.891V67.179c0-0.746-0.143-1.453-0.422-2.121s-0.676-1.254-1.182-1.762
		c-0.508-0.508-1.096-0.9-1.762-1.182c-0.668-0.281-1.375-0.42-2.123-0.42s-1.447,0.139-2.104,0.42
		c-0.652,0.277-1.229,0.674-1.723,1.182s-0.881,1.094-1.16,1.762s-0.42,1.375-0.42,2.121v27.228H318.17V67.179
		c0-0.746-0.143-1.453-0.42-2.121c-0.281-0.668-0.674-1.254-1.184-1.762c-0.508-0.508-1.094-0.9-1.762-1.182s-1.375-0.42-2.121-0.42
		c-0.748,0-1.449,0.139-2.104,0.42c-0.654,0.277-1.229,0.674-1.723,1.182s-0.881,1.094-1.162,1.762
		c-0.277,0.668-0.42,1.375-0.42,2.121v27.228h-10.93v-42.88h2.643l2.965,3.281c1.52-1.279,3.193-2.273,5.021-2.982
		c1.828-0.705,3.73-1.063,5.707-1.063c2.002,0,3.957,0.375,5.865,1.121c1.908,0.748,3.584,2.043,5.023,3.885
		c0.666-0.906,1.43-1.682,2.281-2.32c0.855-0.643,1.756-1.162,2.703-1.564c0.947-0.398,1.928-0.686,2.943-0.859
		c1.014-0.174,2.014-0.262,3.002-0.262c2.27,0,4.396,0.43,6.387,1.281c1.988,0.855,3.723,2.021,5.205,3.504
		c1.48,1.48,2.648,3.225,3.504,5.227s1.281,4.139,1.281,6.404v27.228H350.887L350.887,94.407z"/>
	<path fill="#FFFFFF" d="M400.375,94.407h-2.645l-4.244-5.885c-1.041,0.934-2.143,1.809-3.305,2.619
		c-1.16,0.816-2.381,1.521-3.662,2.123s-2.598,1.074-3.943,1.422c-1.348,0.348-2.717,0.521-4.104,0.521
		c-3.018,0-5.854-0.508-8.508-1.521c-2.656-1.014-4.98-2.486-6.967-4.424c-1.99-1.936-3.561-4.304-4.705-7.104
		c-1.148-2.805-1.725-5.993-1.725-9.571c0-3.336,0.574-6.396,1.725-9.188c1.145-2.789,2.715-5.188,4.705-7.188
		c1.986-2.002,4.311-3.557,6.967-4.664c2.654-1.105,5.49-1.662,8.508-1.662c1.387,0,2.762,0.174,4.123,0.521
		c1.361,0.346,2.684,0.828,3.965,1.439c1.281,0.613,2.502,1.334,3.664,2.162c1.16,0.828,2.248,1.723,3.262,2.684l4.244-5.084h2.645
		V94.407L400.375,94.407z M389.366,72.587c0-1.494-0.287-2.943-0.861-4.346c-0.574-1.4-1.355-2.645-2.342-3.725
		c-0.988-1.082-2.145-1.945-3.463-2.604c-1.322-0.652-2.73-0.98-4.227-0.98s-2.902,0.256-4.225,0.764
		c-1.32,0.508-2.471,1.254-3.443,2.24c-0.975,0.988-1.742,2.209-2.303,3.662c-0.563,1.457-0.84,3.117-0.84,4.986
		s0.277,3.529,0.84,4.984c0.561,1.456,1.328,2.676,2.303,3.663c0.977,0.988,2.123,1.734,3.443,2.242s2.729,0.762,4.225,0.762
		c1.494,0,2.902-0.326,4.227-0.98c1.318-0.654,2.475-1.52,3.463-2.604c0.984-1.08,1.768-2.323,2.342-3.725
		C389.077,75.528,389.366,74.081,389.366,72.587z"/>
	<path fill="#FFFFFF" d="M419.633,94.407h-10.93v-42.88h2.643l3.604,5.084c1.762-1.604,3.764-2.836,6.006-3.703
		s4.563-1.301,6.967-1.301h9.65v10.891h-9.65c-1.146,0-2.229,0.213-3.242,0.641c-1.016,0.43-1.896,1.016-2.643,1.764
		c-0.748,0.748-1.336,1.629-1.764,2.643s-0.641,2.096-0.641,3.242V94.407L419.633,94.407z"/>
	<path fill="#FFFFFF" d="M453.667,94.407h-11.01V34.47h11.01v37.797l16.297-20.658h12.572l-14.215,17.855l14.215,24.943h-12.572
		l-8.689-15.573l-7.605,10.089L453.667,94.407L453.667,94.407z"/>
</g>
<circle fill="#078944" cx="121.901" cy="111.552" r="10.353"/>
<circle fill="#078944" cx="51.979" cy="137.724" r="10.353"/>
<circle fill="#078944" cx="23.854" cy="80.497" r="10.351"/>
<circle fill="#078944" cx="23.854" cy="28.794" r="10.352"/>
<rect x="137.635" y="105.887" fill="none" width="382" height="21.484"/>
<g enable-background="new    ">
	<path fill="#FFFFFF" d="M148.034,127.48h-4.082v-16.367h-6.148v-4.098h16.364v4.098h-6.134V127.48L148.034,127.48z"/>
	<path fill="#FFFFFF" d="M159.604,123.74c0.153,0.048,0.304,0.078,0.457,0.097c0.153,0.015,0.304,0.021,0.457,0.021
		c0.379,0,0.745-0.051,1.1-0.156c0.352-0.104,0.682-0.255,0.991-0.45c0.31-0.192,0.586-0.433,0.829-0.712
		c0.24-0.282,0.438-0.595,0.592-0.935l2.854,2.869c-0.364,0.514-0.778,0.973-1.253,1.379c-0.471,0.411-0.979,0.757-1.526,1.045
		c-0.543,0.285-1.12,0.498-1.724,0.648c-0.606,0.147-1.226,0.223-1.862,0.223c-1.075,0-2.084-0.201-3.034-0.601
		c-0.946-0.399-1.772-0.955-2.481-1.667c-0.709-0.715-1.268-1.568-1.679-2.548c-0.408-0.985-0.61-2.066-0.61-3.247
		c0-1.207,0.205-2.31,0.61-3.307c0.412-0.997,0.967-1.851,1.679-2.553c0.709-0.706,1.535-1.253,2.481-1.641
		c0.946-0.391,1.956-0.586,3.034-0.586c0.637,0,1.259,0.075,1.869,0.229c0.609,0.15,1.186,0.366,1.733,0.655
		c0.544,0.285,1.058,0.637,1.535,1.048c0.475,0.418,0.892,0.88,1.252,1.394L159.604,123.74z M161.602,115.708
		c-0.18-0.065-0.357-0.107-0.535-0.129c-0.18-0.018-0.36-0.029-0.55-0.029c-0.535,0-1.036,0.096-1.505,0.291
		c-0.471,0.195-0.88,0.475-1.229,0.835c-0.348,0.36-0.622,0.796-0.82,1.307c-0.201,0.508-0.3,1.081-0.3,1.718
		c0,0.145,0.009,0.304,0.024,0.486c0.015,0.181,0.036,0.361,0.072,0.544c0.03,0.187,0.072,0.366,0.12,0.541
		c0.048,0.168,0.108,0.321,0.186,0.456L161.602,115.708z"/>
	<path fill="#FFFFFF" d="M182.102,115.237l-2.851,2.865c-0.141-0.399-0.336-0.757-0.583-1.075c-0.249-0.318-0.525-0.589-0.835-0.806
		c-0.309-0.219-0.643-0.384-1.006-0.498c-0.361-0.114-0.733-0.168-1.111-0.168c-0.538,0-1.037,0.104-1.508,0.327
		c-0.468,0.219-0.88,0.525-1.225,0.919c-0.349,0.396-0.622,0.865-0.823,1.406c-0.198,0.54-0.297,1.141-0.297,1.799
		c0,0.531,0.099,1.03,0.297,1.499c0.201,0.469,0.478,0.874,0.823,1.229c0.348,0.352,0.754,0.625,1.225,0.826
		c0.475,0.201,0.973,0.297,1.508,0.297c0.378,0,0.742-0.051,1.096-0.156c0.351-0.104,0.682-0.255,0.991-0.45
		c0.309-0.192,0.585-0.433,0.829-0.712c0.24-0.282,0.438-0.595,0.595-0.935l2.85,2.869c-0.363,0.514-0.778,0.973-1.249,1.379
		c-0.475,0.411-0.982,0.757-1.526,1.045c-0.546,0.285-1.123,0.498-1.727,0.648c-0.606,0.147-1.226,0.223-1.862,0.223
		c-1.075,0-2.084-0.204-3.034-0.607c-0.943-0.408-1.772-0.958-2.481-1.66c-0.706-0.706-1.268-1.529-1.679-2.47
		c-0.408-0.939-0.609-1.949-0.609-3.024c0-1.172,0.204-2.265,0.609-3.283c0.412-1.019,0.97-1.904,1.679-2.661
		c0.709-0.754,1.538-1.352,2.481-1.79c0.946-0.433,1.956-0.655,3.034-0.655c0.637,0,1.262,0.081,1.877,0.243
		c0.613,0.159,1.198,0.396,1.754,0.706c0.556,0.31,1.069,0.685,1.541,1.133C181.354,114.143,181.759,114.657,182.102,115.237z"/>
	<path fill="#FFFFFF" d="M187.896,127.48H184v-21.362h3.896v6.752c0.466-0.354,0.946-0.604,1.442-0.751
		c0.493-0.147,0.997-0.223,1.511-0.223c0.943,0,1.826,0.178,2.655,0.538c0.826,0.354,1.547,0.847,2.16,1.469
		c0.616,0.622,1.1,1.352,1.457,2.184c0.354,0.832,0.535,1.718,0.535,2.658v8.735h-3.923v-8.735h0.027
		c0-0.399-0.075-0.777-0.225-1.132c-0.153-0.357-0.361-0.67-0.628-0.935c-0.264-0.265-0.577-0.475-0.928-0.628
		s-0.727-0.226-1.126-0.226c-0.411,0-0.796,0.075-1.153,0.226c-0.363,0.156-0.676,0.36-0.943,0.628
		c-0.265,0.268-0.475,0.577-0.628,0.935c-0.15,0.354-0.226,0.735-0.226,1.132v8.735H187.896z"/>
	<path fill="#FFFFFF" d="M214.677,123.74c0.15,0.048,0.3,0.078,0.457,0.097c0.15,0.015,0.303,0.021,0.457,0.021
		c0.378,0,0.745-0.051,1.096-0.156c0.354-0.104,0.685-0.255,0.994-0.45c0.307-0.192,0.586-0.433,0.826-0.712
		c0.24-0.282,0.438-0.595,0.595-0.935l2.851,2.869c-0.36,0.514-0.778,0.973-1.25,1.379c-0.475,0.411-0.982,0.757-1.526,1.045
		c-0.547,0.285-1.124,0.498-1.727,0.648c-0.604,0.147-1.226,0.223-1.862,0.223c-1.075,0-2.085-0.201-3.031-0.601
		c-0.946-0.399-1.775-0.955-2.484-1.667c-0.706-0.715-1.268-1.568-1.676-2.548c-0.412-0.985-0.613-2.066-0.613-3.247
		c0-1.207,0.204-2.31,0.613-3.307c0.408-0.997,0.967-1.851,1.676-2.553c0.709-0.706,1.538-1.253,2.484-1.641
		c0.943-0.391,1.952-0.586,3.031-0.586c0.637,0,1.261,0.075,1.868,0.229c0.61,0.15,1.187,0.366,1.733,0.655
		c0.546,0.285,1.06,0.637,1.535,1.048c0.478,0.418,0.892,0.88,1.255,1.394L214.677,123.74z M216.675,115.708
		c-0.184-0.065-0.361-0.107-0.535-0.129c-0.177-0.018-0.361-0.029-0.55-0.029c-0.535,0-1.036,0.096-1.508,0.291
		c-0.469,0.195-0.877,0.475-1.226,0.835s-0.619,0.796-0.82,1.307c-0.201,0.508-0.3,1.081-0.3,1.718c0,0.145,0.009,0.304,0.021,0.486
		c0.015,0.181,0.039,0.361,0.072,0.544c0.033,0.187,0.072,0.366,0.123,0.541c0.048,0.168,0.108,0.321,0.187,0.456L216.675,115.708z"
		/>
	<path fill="#FFFFFF" d="M228.074,127.48l-5.821-15.283h4.437l3.34,9.53l3.325-9.53h4.455l-5.821,15.283H228.074z"/>
	<path fill="#FFFFFF" d="M244.924,123.74c0.15,0.048,0.301,0.078,0.457,0.097c0.15,0.015,0.304,0.021,0.457,0.021
		c0.379,0,0.745-0.051,1.097-0.156c0.354-0.104,0.685-0.255,0.994-0.45c0.306-0.192,0.586-0.433,0.826-0.712
		c0.24-0.282,0.438-0.595,0.595-0.935l2.851,2.869c-0.36,0.514-0.778,0.973-1.25,1.379c-0.475,0.411-0.981,0.757-1.525,1.045
		c-0.547,0.285-1.124,0.498-1.728,0.648c-0.604,0.147-1.226,0.223-1.862,0.223c-1.075,0-2.084-0.201-3.031-0.601
		c-0.946-0.399-1.775-0.955-2.484-1.667c-0.706-0.715-1.268-1.568-1.676-2.548c-0.411-0.985-0.613-2.066-0.613-3.247
		c0-1.207,0.205-2.31,0.613-3.307c0.409-0.997,0.967-1.851,1.676-2.553c0.709-0.706,1.538-1.253,2.484-1.641
		c0.943-0.391,1.953-0.586,3.031-0.586c0.637,0,1.262,0.075,1.868,0.229c0.609,0.15,1.187,0.366,1.733,0.655
		c0.547,0.285,1.061,0.637,1.535,1.048c0.478,0.418,0.892,0.88,1.255,1.394L244.924,123.74z M246.921,115.708
		c-0.183-0.065-0.359-0.107-0.534-0.129c-0.177-0.018-0.36-0.029-0.55-0.029c-0.534,0-1.036,0.096-1.508,0.291
		c-0.468,0.195-0.877,0.475-1.226,0.835c-0.348,0.36-0.619,0.796-0.82,1.307c-0.201,0.508-0.3,1.081-0.3,1.718
		c0,0.145,0.009,0.304,0.021,0.486c0.015,0.181,0.039,0.361,0.072,0.544c0.033,0.187,0.072,0.366,0.123,0.541
		c0.048,0.168,0.108,0.321,0.186,0.456L246.921,115.708z"/>
	<path fill="#FFFFFF" d="M258.078,127.48h-3.896v-15.283h0.942l1.283,1.483c0.628-0.57,1.34-1.009,2.133-1.318
		c0.799-0.31,1.628-0.466,2.49-0.466c0.934,0,1.811,0.178,2.64,0.538c0.826,0.354,1.55,0.847,2.169,1.469s1.105,1.352,1.463,2.184
		s0.535,1.718,0.535,2.658v8.735h-3.896v-8.735c0-0.399-0.078-0.777-0.225-1.132c-0.154-0.357-0.364-0.67-0.629-0.935
		c-0.267-0.265-0.576-0.475-0.928-0.628s-0.73-0.226-1.127-0.226c-0.408,0-0.795,0.075-1.156,0.226
		c-0.359,0.156-0.672,0.36-0.939,0.628s-0.478,0.577-0.625,0.935c-0.156,0.354-0.229,0.735-0.229,1.132L258.078,127.48
		L258.078,127.48z"/>
	<path fill="#FFFFFF" d="M278.068,127.48c-0.94,0-1.827-0.181-2.652-0.538c-0.83-0.354-1.557-0.847-2.178-1.472
		c-0.622-0.619-1.115-1.346-1.469-2.175c-0.357-0.826-0.538-1.709-0.538-2.652v-4.539h-1.896v-3.877h1.896v-6.109h3.881v6.109h5.905
		v3.877h-5.905v4.539c0,0.408,0.075,0.79,0.226,1.147c0.152,0.354,0.36,0.667,0.628,0.931c0.264,0.271,0.579,0.481,0.939,0.635
		c0.36,0.162,0.745,0.236,1.156,0.236h2.953v3.878h-2.95v0.01H278.068z"/>
	<path fill="#FFFFFF" d="M291.593,127.48h-8.903v-3.881h8.903c0.265,0,0.492-0.097,0.685-0.286c0.189-0.191,0.285-0.42,0.285-0.685
		c0-0.276-0.096-0.456-0.285-0.547c-0.192-0.084-0.42-0.126-0.685-0.126h-4.052c-0.676,0-1.313-0.129-1.898-0.388
		c-0.592-0.255-1.105-0.606-1.541-1.048c-0.438-0.441-0.784-0.958-1.033-1.547c-0.253-0.592-0.379-1.223-0.379-1.898
		c0-0.673,0.126-1.307,0.379-1.896c0.252-0.592,0.595-1.105,1.033-1.541c0.436-0.436,0.949-0.784,1.541-1.036
		c0.589-0.249,1.219-0.378,1.898-0.378h7.888v3.88h-7.888c-0.268,0-0.496,0.097-0.686,0.289c-0.191,0.189-0.285,0.414-0.285,0.682
		c0,0.279,0.094,0.511,0.285,0.706c0.189,0.195,0.418,0.294,0.686,0.294h4.052c0.664,0,1.291,0.108,1.883,0.334
		c0.592,0.225,1.105,0.534,1.541,0.934s0.787,0.877,1.043,1.442c0.258,0.562,0.384,1.174,0.384,1.841
		c0,0.673-0.126,1.304-0.384,1.89c-0.256,0.582-0.607,1.096-1.043,1.541c-0.436,0.441-0.949,0.793-1.541,1.042
		C292.884,127.353,292.257,127.48,291.593,127.48z"/>
	<path fill="#FFFFFF" d="M311.283,108.045c0,0.363-0.069,0.7-0.208,1.016c-0.138,0.313-0.327,0.586-0.564,0.819
		c-0.237,0.231-0.514,0.418-0.835,0.556c-0.318,0.139-0.657,0.208-1.019,0.208c-0.36,0-0.702-0.069-1.021-0.208
		c-0.318-0.138-0.595-0.324-0.826-0.556c-0.231-0.233-0.418-0.507-0.556-0.819c-0.139-0.315-0.207-0.652-0.207-1.016
		c0-0.352,0.068-0.682,0.207-1.003c0.138-0.318,0.324-0.595,0.556-0.826c0.231-0.234,0.508-0.418,0.826-0.556
		c0.318-0.139,0.66-0.207,1.021-0.207c0.361,0,0.7,0.068,1.019,0.207c0.321,0.138,0.598,0.321,0.835,0.556
		c0.237,0.231,0.427,0.508,0.564,0.826C311.213,107.361,311.283,107.694,311.283,108.045z M310.613,127.48h-3.923v-15.283h3.923
		V127.48z"/>
	<path fill="#FFFFFF" d="M317.476,127.48h-3.896v-15.283h0.939l1.286,1.483c0.628-0.57,1.34-1.009,2.133-1.318
		c0.796-0.31,1.625-0.466,2.489-0.466c0.932,0,1.812,0.178,2.638,0.538c0.829,0.354,1.55,0.847,2.169,1.469
		c0.618,0.622,1.105,1.352,1.463,2.184c0.354,0.832,0.534,1.718,0.534,2.658v8.735h-3.896v-8.735c0-0.399-0.075-0.777-0.226-1.132
		c-0.153-0.357-0.36-0.67-0.628-0.935c-0.264-0.265-0.576-0.475-0.925-0.628c-0.354-0.153-0.729-0.226-1.13-0.226
		c-0.408,0-0.793,0.075-1.153,0.226c-0.363,0.156-0.676,0.36-0.942,0.628c-0.265,0.268-0.475,0.577-0.625,0.935
		c-0.153,0.354-0.229,0.735-0.229,1.132L317.476,127.48L317.476,127.48z"/>
	<path fill="#FFFFFF" d="M354.926,125.383c-0.949,0.816-2.016,1.441-3.193,1.883c-1.183,0.436-2.402,0.658-3.67,0.658
		c-0.971,0-1.901-0.126-2.8-0.379c-0.901-0.252-1.742-0.609-2.529-1.069c-0.783-0.462-1.498-1.015-2.145-1.661
		c-0.646-0.648-1.201-1.363-1.661-2.147c-0.465-0.787-0.819-1.628-1.072-2.529c-0.249-0.897-0.375-1.832-0.375-2.802
		c0-0.971,0.126-1.904,0.375-2.812c0.253-0.904,0.61-1.749,1.072-2.529c0.46-0.787,1.013-1.502,1.661-2.147
		c0.646-0.649,1.364-1.199,2.145-1.661c0.787-0.466,1.628-0.817,2.529-1.069c0.898-0.253,1.829-0.379,2.8-0.379
		c1.265,0,2.487,0.217,3.67,0.649c1.181,0.432,2.244,1.063,3.193,1.889l-2.166,3.565c-0.601-0.648-1.31-1.145-2.129-1.492
		c-0.814-0.349-1.674-0.521-2.568-0.521c-0.904,0-1.748,0.169-2.535,0.514c-0.793,0.343-1.48,0.803-2.072,1.392
		c-0.589,0.585-1.055,1.273-1.395,2.069c-0.345,0.793-0.514,1.634-0.514,2.528c0,0.896,0.169,1.733,0.514,2.521
		c0.343,0.787,0.806,1.472,1.395,2.063c0.592,0.589,1.279,1.055,2.072,1.396c0.79,0.343,1.634,0.514,2.535,0.514
		c0.895,0,1.754-0.171,2.568-0.52c0.819-0.352,1.528-0.847,2.129-1.495L354.926,125.383z"/>
	<path fill="#FFFFFF" d="M371.12,119.703c0,1.142-0.204,2.208-0.61,3.19c-0.411,0.982-0.967,1.835-1.67,2.553
		s-1.528,1.283-2.475,1.697c-0.946,0.415-1.962,0.619-3.046,0.619c-1.072,0-2.082-0.208-3.031-0.619
		c-0.945-0.414-1.774-0.979-2.483-1.697s-1.265-1.57-1.677-2.553c-0.408-0.985-0.609-2.049-0.609-3.19
		c0-1.159,0.204-2.234,0.609-3.223c0.412-0.994,0.968-1.845,1.677-2.563s1.538-1.282,2.483-1.69
		c0.946-0.412,1.956-0.613,3.031-0.613c1.084,0,2.1,0.192,3.046,0.577c0.946,0.384,1.771,0.934,2.475,1.64
		c0.703,0.709,1.259,1.563,1.67,2.554C370.918,117.378,371.12,118.487,371.12,119.703z M367.197,119.703
		c0-0.628-0.103-1.192-0.307-1.703c-0.204-0.507-0.48-0.946-0.835-1.313c-0.352-0.366-0.763-0.646-1.234-0.841
		s-0.974-0.294-1.505-0.294c-0.532,0-1.036,0.099-1.505,0.294c-0.475,0.195-0.88,0.475-1.229,0.841s-0.619,0.806-0.82,1.313
		c-0.198,0.511-0.301,1.075-0.301,1.703c0,0.589,0.103,1.136,0.301,1.641c0.201,0.504,0.475,0.942,0.82,1.313
		c0.346,0.372,0.757,0.667,1.229,0.877c0.469,0.216,0.97,0.321,1.505,0.321c0.534,0,1.033-0.096,1.505-0.297
		s0.883-0.481,1.234-0.845c0.354-0.357,0.631-0.799,0.835-1.313S367.197,120.322,367.197,119.703z"/>
	<path fill="#FFFFFF" d="M377.199,133.3h-3.923V112.2h0.938l1.559,1.838c0.352-0.333,0.736-0.646,1.156-0.939
		c0.415-0.292,0.854-0.547,1.304-0.764c0.454-0.216,0.922-0.384,1.406-0.507c0.486-0.124,0.976-0.187,1.469-0.187
		c1.075,0,2.087,0.192,3.033,0.583c0.946,0.384,1.772,0.928,2.481,1.634c0.709,0.703,1.268,1.553,1.676,2.544
		c0.412,0.994,0.616,2.094,0.616,3.301c0,1.256-0.208,2.389-0.616,3.389c-0.405,1.003-0.967,1.856-1.676,2.553
		c-0.709,0.7-1.535,1.234-2.481,1.607c-0.946,0.369-1.955,0.556-3.033,0.556c-0.343,0-0.683-0.039-1.019-0.114
		c-0.34-0.075-0.67-0.177-1-0.307c-0.328-0.129-0.652-0.273-0.971-0.436c-0.318-0.159-0.621-0.327-0.919-0.495V133.3z
		 M385.002,119.703c0-0.646-0.103-1.226-0.307-1.739s-0.483-0.949-0.835-1.307s-0.766-0.63-1.24-0.819
		c-0.48-0.192-0.982-0.288-1.514-0.288c-0.529,0-1.033,0.096-1.505,0.288c-0.472,0.189-0.88,0.462-1.234,0.819
		c-0.352,0.354-0.631,0.793-0.836,1.307c-0.204,0.514-0.306,1.094-0.306,1.739c0,0.619,0.102,1.187,0.306,1.697
		c0.205,0.514,0.484,0.952,0.836,1.313c0.351,0.363,0.763,0.644,1.234,0.845c0.475,0.201,0.976,0.297,1.505,0.297
		c0.534,0,1.036-0.096,1.514-0.297c0.475-0.201,0.886-0.481,1.24-0.845c0.352-0.357,0.631-0.799,0.835-1.313
		S385.002,120.322,385.002,119.703z"/>
	<path fill="#FFFFFF" d="M397.143,123.74c0.156,0.048,0.307,0.078,0.457,0.097c0.156,0.015,0.307,0.021,0.459,0.021
		c0.379,0,0.745-0.051,1.1-0.156c0.352-0.104,0.679-0.255,0.991-0.45c0.31-0.192,0.586-0.433,0.829-0.712
		c0.24-0.282,0.438-0.595,0.592-0.935l2.854,2.869c-0.363,0.514-0.777,0.973-1.249,1.379c-0.472,0.411-0.979,0.757-1.523,1.045
		c-0.547,0.285-1.123,0.498-1.727,0.648c-0.607,0.147-1.226,0.223-1.862,0.223c-1.076,0-2.085-0.201-3.034-0.601
		s-1.772-0.955-2.481-1.667c-0.711-0.715-1.268-1.568-1.679-2.548c-0.408-0.985-0.609-2.066-0.609-3.247
		c0-1.207,0.204-2.31,0.609-3.307c0.411-0.997,0.968-1.851,1.679-2.553c0.709-0.706,1.538-1.253,2.481-1.641
		c0.946-0.391,1.955-0.586,3.034-0.586c0.637,0,1.258,0.075,1.868,0.229c0.609,0.15,1.187,0.366,1.735,0.655
		c0.544,0.285,1.058,0.637,1.532,1.048c0.475,0.418,0.896,0.88,1.253,1.394L397.143,123.74z M399.141,115.708
		c-0.178-0.065-0.354-0.107-0.535-0.129c-0.174-0.018-0.357-0.029-0.549-0.029c-0.532,0-1.034,0.096-1.506,0.291
		c-0.471,0.195-0.88,0.475-1.225,0.835c-0.352,0.36-0.622,0.796-0.82,1.307c-0.201,0.508-0.301,1.081-0.301,1.718
		c0,0.145,0.01,0.304,0.024,0.486c0.015,0.181,0.036,0.361,0.072,0.544c0.032,0.187,0.071,0.366,0.12,0.541
		c0.048,0.168,0.104,0.321,0.186,0.456L399.141,115.708z"/>
	<path fill="#FFFFFF" d="M410.299,127.48h-3.896v-15.283h0.94l1.285,1.483c0.625-0.57,1.337-1.009,2.133-1.318
		s1.625-0.466,2.49-0.466c0.928,0,1.812,0.178,2.641,0.538c0.825,0.354,1.55,0.847,2.168,1.469c0.616,0.622,1.105,1.352,1.46,2.184
		c0.357,0.832,0.538,1.718,0.538,2.658v8.735h-3.896v-8.735c0-0.399-0.074-0.777-0.228-1.132c-0.153-0.357-0.357-0.67-0.625-0.935
		c-0.268-0.268-0.577-0.475-0.929-0.628s-0.727-0.226-1.123-0.226c-0.411,0-0.799,0.075-1.156,0.226
		c-0.36,0.156-0.676,0.36-0.94,0.628c-0.268,0.268-0.48,0.577-0.628,0.935c-0.152,0.354-0.229,0.735-0.229,1.132v8.735H410.299
		L410.299,127.48z"/>
	<path fill="#FFFFFF" d="M426.721,127.48h-3.896v-21.362h3.896v6.752c0.465-0.354,0.946-0.604,1.441-0.751
		c0.493-0.147,0.997-0.223,1.511-0.223c0.943,0,1.826,0.178,2.655,0.538c0.826,0.354,1.547,0.847,2.16,1.469
		c0.615,0.622,1.1,1.352,1.457,2.184c0.354,0.832,0.534,1.718,0.534,2.658v8.735h-3.923v-8.735h0.027
		c0-0.399-0.075-0.777-0.226-1.132c-0.153-0.357-0.36-0.67-0.628-0.935c-0.264-0.268-0.573-0.475-0.928-0.628
		c-0.352-0.153-0.73-0.226-1.127-0.226c-0.408,0-0.793,0.075-1.153,0.226c-0.363,0.156-0.676,0.36-0.942,0.628
		c-0.268,0.268-0.475,0.577-0.628,0.935c-0.153,0.354-0.226,0.735-0.226,1.132v8.735H426.721z"/>
	<path fill="#FFFFFF" d="M454.042,127.48h-0.937l-1.515-2.097c-0.369,0.33-0.763,0.643-1.177,0.931
		c-0.415,0.288-0.851,0.544-1.307,0.754c-0.457,0.22-0.926,0.385-1.406,0.508s-0.967,0.187-1.463,0.187
		c-1.072,0-2.081-0.181-3.03-0.544c-0.946-0.36-1.775-0.886-2.484-1.577c-0.709-0.688-1.265-1.531-1.676-2.532
		c-0.409-0.994-0.61-2.136-0.61-3.409c0-1.187,0.205-2.276,0.61-3.273c0.411-0.994,0.967-1.848,1.676-2.563
		c0.709-0.712,1.538-1.268,2.484-1.661s1.955-0.592,3.03-0.592c0.496,0,0.988,0.061,1.469,0.187
		c0.487,0.123,0.959,0.291,1.415,0.514c0.457,0.216,0.893,0.475,1.307,0.769c0.415,0.295,0.802,0.61,1.162,0.955l1.515-1.811h0.937
		V127.48z M450.12,119.703c0-0.531-0.102-1.048-0.307-1.547c-0.204-0.501-0.48-0.942-0.834-1.327
		c-0.352-0.385-0.764-0.691-1.235-0.929c-0.468-0.231-0.973-0.351-1.505-0.351c-0.531,0-1.036,0.093-1.505,0.272
		c-0.472,0.181-0.88,0.448-1.229,0.8c-0.349,0.351-0.618,0.786-0.819,1.31c-0.198,0.517-0.301,1.108-0.301,1.771
		c0,0.67,0.103,1.259,0.301,1.775c0.201,0.52,0.475,0.955,0.819,1.307c0.349,0.352,0.757,0.619,1.229,0.802
		c0.469,0.181,0.971,0.271,1.505,0.271c0.535,0,1.037-0.114,1.505-0.349c0.472-0.234,0.884-0.546,1.235-0.931
		c0.354-0.385,0.63-0.826,0.834-1.328C450.018,120.751,450.12,120.235,450.12,119.703z"/>
	<path fill="#FFFFFF" d="M471.807,125.554c0,1.069-0.205,2.081-0.61,3.024c-0.411,0.938-0.967,1.761-1.676,2.467
		c-0.709,0.702-1.538,1.258-2.484,1.667c-0.946,0.414-1.955,0.615-3.03,0.615l-1.956-0.033v-3.893l1.926,0.03
		c0.609,0,1.129-0.078,1.559-0.234c0.427-0.159,0.79-0.369,1.081-0.643c0.295-0.271,0.535-0.583,0.706-0.932
		c0.178-0.354,0.315-0.724,0.421-1.117c-0.15,0.249-0.369,0.45-0.655,0.609c-0.288,0.156-0.604,0.286-0.948,0.385
		c-0.352,0.1-0.709,0.171-1.085,0.207c-0.375,0.039-0.727,0.058-1.048,0.058c-1.076,0-2.085-0.187-3.037-0.556
		c-0.943-0.37-1.77-0.901-2.479-1.589c-0.708-0.688-1.268-1.532-1.679-2.532c-0.408-0.997-0.609-2.127-0.609-3.383
		c0-1.15,0.204-2.217,0.609-3.208c0.411-0.991,0.971-1.847,1.679-2.567c0.709-0.725,1.535-1.289,2.479-1.697
		c0.949-0.412,1.959-0.613,3.037-0.613c0.489,0,0.984,0.061,1.469,0.187c0.483,0.123,0.952,0.291,1.411,0.514
		c0.457,0.216,0.893,0.475,1.307,0.769c0.418,0.295,0.803,0.613,1.163,0.955l1.514-1.811h0.938V125.554L471.807,125.554z
		 M467.883,119.703c0-0.531-0.099-1.048-0.306-1.547c-0.204-0.501-0.48-0.942-0.835-1.327c-0.352-0.385-0.76-0.691-1.234-0.929
		c-0.472-0.234-0.974-0.351-1.505-0.351c-0.538,0-1.04,0.093-1.505,0.272c-0.472,0.181-0.881,0.448-1.229,0.8
		c-0.349,0.351-0.622,0.786-0.82,1.31c-0.201,0.517-0.301,1.108-0.301,1.771c0,0.637,0.1,1.211,0.301,1.719
		c0.198,0.511,0.475,0.946,0.82,1.307c0.348,0.36,0.757,0.64,1.229,0.835c0.469,0.198,0.97,0.291,1.505,0.291
		c0.531,0,1.033-0.114,1.505-0.349c0.475-0.234,0.883-0.546,1.234-0.931c0.354-0.385,0.631-0.826,0.835-1.328
		C467.782,120.751,467.883,120.235,467.883,119.703z"/>
	<path fill="#FFFFFF" d="M480.854,123.74c0.15,0.048,0.3,0.078,0.456,0.097c0.15,0.015,0.301,0.021,0.457,0.021
		c0.378,0,0.742-0.051,1.097-0.156c0.351-0.104,0.685-0.255,0.994-0.45c0.306-0.192,0.585-0.433,0.826-0.712
		c0.243-0.282,0.438-0.595,0.594-0.935l2.851,2.869c-0.36,0.514-0.777,0.973-1.246,1.379c-0.475,0.411-0.985,0.757-1.529,1.045
		c-0.546,0.285-1.12,0.498-1.724,0.648c-0.609,0.147-1.226,0.223-1.862,0.223c-1.075,0-2.088-0.201-3.037-0.601
		c-0.943-0.399-1.769-0.955-2.478-1.667c-0.709-0.715-1.268-1.568-1.677-2.548c-0.414-0.985-0.615-2.066-0.615-3.247
		c0-1.207,0.204-2.31,0.615-3.307c0.409-0.997,0.968-1.851,1.677-2.553c0.709-0.706,1.534-1.253,2.478-1.641
		c0.946-0.391,1.959-0.586,3.037-0.586c0.637,0,1.255,0.075,1.868,0.229c0.609,0.15,1.187,0.366,1.733,0.655
		c0.55,0.285,1.06,0.637,1.534,1.048c0.475,0.418,0.893,0.88,1.256,1.394L480.854,123.74z M482.851,115.708
		c-0.183-0.065-0.36-0.107-0.537-0.129c-0.175-0.018-0.357-0.029-0.547-0.029c-0.538,0-1.036,0.096-1.508,0.291
		c-0.469,0.195-0.877,0.475-1.226,0.835s-0.622,0.796-0.82,1.307c-0.201,0.508-0.297,1.081-0.297,1.718
		c0,0.145,0.006,0.304,0.021,0.486c0.016,0.181,0.039,0.361,0.072,0.544c0.033,0.187,0.072,0.366,0.12,0.541
		c0.048,0.168,0.108,0.321,0.187,0.456L482.851,115.708z"/>
	<path fill="#FFFFFF" d="M494.007,127.48h-3.896v-15.283h0.943l1.283,1.483c0.624-0.57,1.339-1.009,2.132-1.318
		c0.797-0.31,1.625-0.466,2.49-0.466c0.932,0,1.814,0.178,2.641,0.538c0.829,0.354,1.55,0.847,2.169,1.469
		c0.618,0.622,1.104,1.352,1.462,2.184c0.355,0.832,0.535,1.718,0.535,2.658v8.735h-3.896v-8.735c0-0.399-0.075-0.777-0.226-1.132
		c-0.153-0.357-0.36-0.67-0.628-0.935c-0.265-0.268-0.573-0.475-0.928-0.628c-0.352-0.153-0.73-0.226-1.127-0.226
		c-0.411,0-0.796,0.075-1.153,0.226c-0.363,0.156-0.676,0.36-0.943,0.628c-0.267,0.268-0.475,0.577-0.627,0.935
		c-0.153,0.354-0.226,0.735-0.226,1.132v8.735H494.007L494.007,127.48z"/>
</g>
</svg>
